<svg width="149" height="149" viewBox="0 0 149 149" fill="none" xmlns="http://www.w3.org/2000/svg">
<g filter="url(#filter0_d_38_2527)">
<circle cx="72.0175" cy="70.5805" r="60.2187" fill="white"/>
</g>
<path d="M113.65 75.9117C113.732 75.0969 113.972 74.3952 114.371 73.8068C114.769 73.2184 115.33 72.7854 116.053 72.5077C116.776 72.2301 117.661 72.1438 118.707 72.2491C119.803 72.3593 120.679 72.631 121.336 73.0642C121.999 73.5034 122.465 74.062 122.736 74.74C123.007 75.418 123.102 76.1672 123.019 76.9876C122.974 77.4391 122.883 77.8694 122.748 78.2784C122.617 78.6935 122.469 79.0291 122.304 79.285L121.198 78.7566C121.336 78.4924 121.467 78.183 121.591 77.8284C121.716 77.4794 121.793 77.148 121.825 76.8341C121.888 76.2064 121.806 75.6698 121.578 75.2242C121.35 74.7841 120.985 74.4331 120.483 74.1713C119.98 73.9149 119.346 73.7483 118.581 73.6713C117.848 73.5976 117.214 73.6339 116.676 73.78C116.138 73.9317 115.711 74.1919 115.396 74.5607C115.086 74.9355 114.901 75.423 114.84 76.0231C114.792 76.5021 114.798 76.9394 114.859 77.3347C114.924 77.7307 115.01 78.0925 115.116 78.4202L113.894 78.2973C113.77 77.9789 113.686 77.6284 113.641 77.2457C113.596 76.8685 113.599 76.4238 113.65 75.9117Z" fill="url(#paint0_linear_38_2527)"/>
<path d="M120.893 87.0561C120.55 88.0852 120.065 88.7722 119.437 89.1172C118.809 89.4622 117.988 89.466 116.975 89.1287L111.107 87.1754L111.425 86.2225L112.784 86.3952L112.805 86.3322C112.571 85.9858 112.389 85.6455 112.262 85.3113C112.139 84.9788 112.08 84.621 112.085 84.2377C112.094 83.8615 112.181 83.424 112.347 82.9252C112.522 82.4001 112.769 81.9634 113.09 81.615C113.408 81.2719 113.793 81.0443 114.244 80.9321C114.694 80.8252 115.205 80.867 115.777 81.0575C116.638 81.3441 117.186 81.9057 117.421 82.7421C117.656 83.5784 117.562 84.702 117.139 86.1126L116.706 87.6221L117.234 87.7978C117.98 88.046 118.555 88.0597 118.961 87.8391C119.367 87.6184 119.667 87.2167 119.861 86.6339C120.012 86.1823 120.089 85.7299 120.094 85.2767C120.099 84.8235 120.074 84.3833 120.018 83.9564L121.144 83.8851C121.214 84.34 121.236 84.8431 121.21 85.3944C121.184 85.9456 121.078 86.4995 120.893 87.0561ZM115.79 87.2996L116.173 85.966C116.489 84.8756 116.566 84.0584 116.403 83.5142C116.24 82.97 115.875 82.6035 115.308 82.4148C114.814 82.2505 114.4 82.2786 114.064 82.4993C113.728 82.7199 113.478 83.077 113.313 83.5705C113.058 84.3371 113.062 85.0353 113.325 85.6652C113.588 86.2951 114.144 86.7516 114.995 87.0348L115.79 87.2996Z" fill="url(#paint1_linear_38_2527)"/>
<path d="M109.052 96.2628C108.554 95.9636 108.21 95.5857 108.019 95.1291C107.83 94.6801 107.79 94.1718 107.899 93.6044C108.004 93.0416 108.25 92.4401 108.634 91.7996C108.962 91.2541 109.288 90.8078 109.613 90.4606C109.938 90.1134 110.268 89.8374 110.604 89.6326L111.693 90.2866C111.345 90.5104 110.975 90.8044 110.582 91.1686C110.189 91.5328 109.854 91.945 109.578 92.4052C109.173 93.0788 108.989 93.6329 109.025 94.0676C109.06 94.5023 109.266 94.8322 109.641 95.0573C109.854 95.1855 110.078 95.2364 110.314 95.21C110.551 95.1911 110.831 95.085 111.154 94.8915C111.481 94.701 111.889 94.4098 112.376 94.0181C112.865 93.634 113.311 93.3149 113.716 93.0607C114.122 92.8142 114.52 92.6725 114.91 92.6357C115.298 92.6037 115.707 92.7173 116.139 92.9766C116.798 93.3727 117.144 93.9418 117.176 94.684C117.209 95.4338 116.966 96.2427 116.444 97.1108C116.162 97.5804 115.851 97.9907 115.511 98.3417C115.173 98.7003 114.819 99.0104 114.449 99.2722L113.742 98.3052C114.073 98.0653 114.396 97.7912 114.71 97.4829C115.024 97.1746 115.295 96.8307 115.523 96.4512C115.851 95.9057 116.013 95.4317 116.01 95.0293C116.003 94.6317 115.843 94.3388 115.53 94.1507C115.288 94.0054 115.049 93.9521 114.813 93.9909C114.574 94.0344 114.296 94.1643 113.978 94.3805C113.661 94.5968 113.264 94.8936 112.785 95.2711C112.311 95.6514 111.87 95.961 111.462 96.2C111.059 96.4418 110.662 96.5749 110.273 96.5994C109.886 96.6314 109.479 96.5192 109.052 96.2628Z" fill="url(#paint2_linear_38_2527)"/>
<path d="M109.702 106.191C109.169 106.752 108.587 107.116 107.957 107.28C107.327 107.445 106.686 107.42 106.035 107.206C105.388 106.995 104.765 106.606 104.168 106.038L103.548 105.449L107.877 100.894C107.091 100.171 106.318 99.8027 105.559 99.7907C104.799 99.7787 104.097 100.112 103.453 100.79C103.056 101.207 102.744 101.612 102.515 102.005C102.286 102.399 102.082 102.838 101.903 103.324L101.024 102.49C101.192 102.016 101.398 101.582 101.643 101.188C101.883 100.798 102.215 100.381 102.638 99.9355C103.241 99.3017 103.895 98.8701 104.602 98.6408C105.309 98.4193 106.036 98.4164 106.786 98.6322C107.535 98.848 108.273 99.3009 108.999 99.9909C109.709 100.666 110.21 101.367 110.502 102.096C110.795 102.832 110.876 103.55 110.745 104.25C110.61 104.954 110.263 105.601 109.702 106.191ZM108.895 105.401C109.403 104.868 109.632 104.277 109.584 103.628C109.536 102.979 109.228 102.328 108.66 101.673L105.343 105.163C105.74 105.532 106.144 105.798 106.555 105.96C106.967 106.129 107.369 106.172 107.762 106.088C108.159 106.007 108.537 105.778 108.895 105.401Z" fill="url(#paint3_linear_38_2527)"/>
<path d="M100.403 114.06C100.253 114.164 100.089 114.263 99.9124 114.358C99.7389 114.457 99.579 114.537 99.4325 114.598L98.8508 113.446C98.9958 113.393 99.1498 113.324 99.3127 113.239C99.4757 113.153 99.6232 113.065 99.7554 112.974C100.056 112.767 100.299 112.509 100.483 112.201C100.665 111.9 100.778 111.567 100.822 111.201C100.869 110.84 100.839 110.46 100.733 110.063C100.63 109.67 100.446 109.28 100.179 108.892L97.4095 104.873L98.551 104.087L103.713 111.578L102.769 112.228L101.695 110.932L101.647 110.965C101.684 111.35 101.671 111.731 101.609 112.11C101.551 112.493 101.425 112.852 101.232 113.186C101.035 113.524 100.758 113.815 100.403 114.06Z" fill="url(#paint4_linear_38_2527)"/>
<path d="M87.6972 112.991C87.4669 112.458 87.4074 111.95 87.5187 111.468C87.6271 110.993 87.8908 110.557 88.3097 110.159C88.7235 109.763 89.2734 109.417 89.9592 109.121C90.5435 108.869 91.0687 108.696 91.535 108.603C92.0012 108.51 92.4306 108.479 92.823 108.508L93.3265 109.674C92.9137 109.654 92.4415 109.677 91.9098 109.743C91.378 109.81 90.8658 109.95 90.373 110.163C89.6515 110.474 89.1787 110.817 88.9545 111.191C88.7302 111.565 88.7048 111.953 88.8781 112.355C88.9768 112.583 89.1295 112.755 89.3362 112.871C89.54 112.994 89.8294 113.071 90.2044 113.102C90.5816 113.138 91.0823 113.139 91.7064 113.104C92.3275 113.077 92.8765 113.078 93.3533 113.107C93.8271 113.144 94.2333 113.261 94.5717 113.458C94.905 113.658 95.1715 113.989 95.3712 114.451C95.6761 115.158 95.6252 115.821 95.2185 116.443C94.809 117.072 94.1393 117.587 93.2096 117.989C92.7066 118.206 92.2147 118.358 91.734 118.445C91.2503 118.539 90.7817 118.585 90.3283 118.582L90.3174 117.384C90.7265 117.382 91.1486 117.348 91.5836 117.28C92.0187 117.213 92.4395 117.092 92.8459 116.916C93.4302 116.664 93.8381 116.373 94.0697 116.044C94.2963 115.717 94.3372 115.386 94.1924 115.051C94.0805 114.792 93.9172 114.609 93.7026 114.503C93.4829 114.399 93.1812 114.342 92.7975 114.333C92.4138 114.324 91.9175 114.333 91.3087 114.361C90.702 114.394 90.1632 114.388 89.6922 114.345C89.2234 114.306 88.8238 114.183 88.4934 113.976C88.16 113.777 87.8946 113.448 87.6972 112.991Z" fill="url(#paint5_linear_38_2527)"/>
<path d="M70.0214 112.867C70.8392 112.912 71.5512 113.119 72.1574 113.49C72.7636 113.861 73.2221 114.401 73.5329 115.111C73.8436 115.82 73.9706 116.7 73.9139 117.75C73.8544 118.849 73.6235 119.737 73.2211 120.414C72.813 121.096 72.2765 121.588 71.6118 121.89C70.947 122.192 70.203 122.321 69.3796 122.276C68.9265 122.252 68.4925 122.181 68.0777 122.064C67.6569 121.953 67.3149 121.821 67.0517 121.668L67.5284 120.538C67.7987 120.664 68.1138 120.781 68.4737 120.889C68.8281 120.997 69.1628 121.059 69.4778 121.076C70.1077 121.11 70.64 121.003 71.0746 120.755C71.5037 120.507 71.8374 120.126 72.0758 119.612C72.3086 119.098 72.4458 118.457 72.4873 117.689C72.5271 116.954 72.4615 116.322 72.2907 115.792C72.1143 115.261 71.8347 114.847 71.4517 114.549C71.063 114.257 70.5675 114.094 69.9652 114.061C69.4844 114.035 69.048 114.062 68.6558 114.14C68.2633 114.224 67.9058 114.327 67.5834 114.448L67.6497 113.221C67.962 113.083 68.3083 112.983 68.6885 112.92C69.0632 112.857 69.5075 112.84 70.0214 112.867Z" fill="url(#paint6_linear_38_2527)"/>
<path d="M59.2946 120.613C58.251 120.318 57.5426 119.864 57.1695 119.252C56.7964 118.641 56.7554 117.821 57.0465 116.793L58.7318 110.843L59.6981 111.117L59.5872 112.483L59.6511 112.501C59.9865 112.251 60.3183 112.055 60.6463 111.912C60.9729 111.774 61.3277 111.699 61.7108 111.687C62.087 111.678 62.528 111.746 63.0339 111.889C63.5663 112.04 64.0138 112.267 64.3763 112.571C64.7335 112.874 64.9784 113.248 65.1109 113.694C65.2381 114.138 65.2195 114.651 65.0551 115.231C64.8078 116.104 64.2717 116.677 63.4468 116.95C62.6219 117.222 61.4953 117.179 60.0669 116.82L58.5394 116.457L58.3878 116.992C58.1737 117.748 58.186 118.324 58.4248 118.719C58.6637 119.115 59.0786 119.396 59.6696 119.564C60.1275 119.693 60.5829 119.75 61.0359 119.735C61.4889 119.719 61.9274 119.674 62.3514 119.598L62.4737 120.72C62.0224 120.811 61.5208 120.856 60.9689 120.855C60.4171 120.854 59.859 120.773 59.2946 120.613ZM58.82 115.527L60.1696 115.849C61.2732 116.115 62.0931 116.155 62.6293 115.967C63.1655 115.78 63.5151 115.399 63.6779 114.824C63.8197 114.323 63.7728 113.91 63.5371 113.585C63.3015 113.259 62.9335 113.025 62.433 112.884C61.6556 112.663 60.9583 112.699 60.3409 112.99C59.7236 113.281 59.2928 113.858 59.0485 114.72L58.82 115.527Z" fill="url(#paint7_linear_38_2527)"/>
<path d="M49.571 109.217C49.846 108.705 50.207 108.343 50.6539 108.131C51.0934 107.921 51.5991 107.857 52.1711 107.938C52.7383 108.016 53.3509 108.232 54.009 108.586C54.5696 108.887 55.0311 109.192 55.3934 109.499C55.7558 109.807 56.0473 110.124 56.268 110.45L55.6669 111.569C55.4267 111.232 55.1153 110.876 54.7327 110.501C54.35 110.126 53.9223 109.811 53.4494 109.557C52.7572 109.185 52.1948 109.028 51.7624 109.084C51.3299 109.141 51.0102 109.362 50.8033 109.747C50.6854 109.966 50.6454 110.193 50.6831 110.427C50.7133 110.663 50.8327 110.938 51.0414 111.251C51.2474 111.569 51.5578 111.962 51.9724 112.429C52.3795 112.899 52.7196 113.33 52.9928 113.722C53.2586 114.116 53.4191 114.507 53.4746 114.895C53.5252 115.28 53.4313 115.695 53.193 116.138C52.8289 116.816 52.277 117.188 51.5372 117.256C50.7899 117.325 49.9702 117.121 49.0781 116.641C48.5955 116.382 48.1708 116.091 47.8039 115.768C47.4296 115.448 47.1028 115.109 46.8236 114.752L47.7556 113.999C48.0112 114.318 48.3004 114.628 48.6234 114.927C48.9464 115.226 49.3029 115.48 49.6929 115.69C50.2535 115.991 50.7346 116.13 51.1364 116.107C51.5333 116.082 51.8182 115.908 51.991 115.587C52.1246 115.338 52.1664 115.097 52.1163 114.862C52.0614 114.626 51.9183 114.354 51.6871 114.048C51.456 113.741 51.1404 113.358 50.7405 112.898C50.3379 112.443 50.0075 112.018 49.7492 111.621C49.4884 111.23 49.3364 110.84 49.2933 110.453C49.2427 110.068 49.3353 109.656 49.571 109.217Z" fill="url(#paint8_linear_38_2527)"/>
<path d="M39.7213 110.343C39.1351 109.837 38.7448 109.273 38.5505 108.651C38.3562 108.03 38.3507 107.389 38.534 106.728C38.7138 106.071 39.0732 105.431 39.6124 104.807L40.1715 104.16L44.9257 108.269C45.6115 107.45 45.9424 106.661 45.9185 105.902C45.8946 105.142 45.5289 104.457 44.8213 103.845C44.3858 103.469 43.9663 103.176 43.5626 102.966C43.1589 102.756 42.71 102.573 42.2161 102.417L43.0085 101.5C43.4899 101.645 43.933 101.831 44.3379 102.056C44.7385 102.278 45.1712 102.59 45.636 102.992C46.2975 103.563 46.7595 104.197 47.022 104.892C47.2766 105.587 47.3139 106.314 47.1337 107.073C46.9536 107.831 46.536 108.589 45.881 109.347C45.2406 110.088 44.5634 110.622 43.8496 110.949C43.128 111.276 42.4145 111.391 41.709 111.293C40.9993 111.192 40.3367 110.875 39.7213 110.343ZM40.472 109.5C41.0289 109.981 41.6301 110.183 42.2756 110.104C42.9212 110.026 43.5576 109.687 44.1849 109.088L40.5423 105.94C40.1919 106.354 39.9456 106.77 39.8035 107.189C39.6535 107.608 39.6299 108.011 39.7328 108.4C39.832 108.793 40.0784 109.16 40.472 109.5Z" fill="url(#paint9_linear_38_2527)"/>
<path d="M31.4382 101.432C31.3276 101.287 31.2207 101.128 31.1177 100.956C31.0102 100.788 30.9227 100.632 30.8553 100.488L31.9779 99.8527C32.0376 99.995 32.114 100.146 32.207 100.304C32.3 100.463 32.3951 100.606 32.4923 100.734C32.7136 101.024 32.9826 101.254 33.2993 101.424C33.6082 101.592 33.9465 101.689 34.3141 101.715C34.6773 101.744 35.055 101.697 35.447 101.572C35.8346 101.451 36.2155 101.248 36.5897 100.963L40.473 98.006L41.3128 99.1089L34.0746 104.62L33.3807 103.709L34.6242 102.574L34.589 102.528C34.2064 102.583 33.8246 102.588 33.4436 102.545C33.0581 102.504 32.6937 102.396 32.3504 102.219C32.0038 102.038 31.6997 101.776 31.4382 101.432Z" fill="url(#paint10_linear_38_2527)"/>
<path d="M31.9133 88.6831C32.4359 88.4292 32.9405 88.3471 33.4271 88.4368C33.9062 88.5239 34.3539 88.7678 34.7701 89.1686C35.1838 89.5643 35.554 90.0982 35.8804 90.7701C36.1586 91.3425 36.3544 91.8596 36.4679 92.3212C36.5815 92.7828 36.6323 93.2103 36.6204 93.6037L35.4781 94.1587C35.4803 93.7454 35.4362 93.2747 35.3456 92.7465C35.2551 92.2183 35.0926 91.7128 34.858 91.23C34.5146 90.5232 34.151 90.0661 33.7673 89.8588C33.3835 89.6515 32.9951 89.6434 32.6018 89.8344C32.3779 89.9432 32.2127 90.1035 32.1063 90.3151C31.9926 90.5242 31.9286 90.8167 31.9144 91.1928C31.8953 91.5712 31.9168 92.0714 31.979 92.6933C32.0339 93.3127 32.0573 93.8612 32.0494 94.3388C32.0341 94.8138 31.9354 95.2247 31.7532 95.5716C31.5687 95.9136 31.2499 96.1946 30.797 96.4146C30.1051 96.7508 29.4396 96.7296 28.8004 96.3511C28.1538 95.97 27.6092 95.324 27.1667 94.4131C26.9273 93.9204 26.7533 93.4358 26.6449 92.9593C26.5291 92.4804 26.4626 92.0143 26.4455 91.5612L27.6416 91.4968C27.6617 91.9054 27.7151 92.3256 27.8018 92.7572C27.8885 93.1888 28.0285 93.6037 28.222 94.0019C28.5001 94.5743 28.8087 94.9689 29.1478 95.1856C29.4844 95.3973 29.817 95.4234 30.1455 95.2638C30.3994 95.1404 30.5746 94.9692 30.6711 94.75C30.7653 94.5259 30.8083 94.2219 30.8003 93.8382C30.7923 93.4545 30.7608 92.9592 30.7058 92.3522C30.6459 91.7476 30.6273 91.2091 30.65 90.7366C30.6677 90.2666 30.7725 89.8619 30.9645 89.5225C31.1491 89.1806 31.4653 88.9008 31.9133 88.6831Z" fill="url(#paint11_linear_38_2527)"/>
<path d="M31.2048 71.1859C31.1985 72.0049 31.0241 72.7258 30.6818 73.3485C30.3394 73.9712 29.821 74.4542 29.1266 74.7974C28.4322 75.1407 27.5593 75.3083 26.5079 75.3002C25.4067 75.2917 24.5089 75.1021 23.8144 74.7315C23.1145 74.3553 22.5983 73.8422 22.2657 73.1922C21.9332 72.5421 21.7701 71.8048 21.7764 70.9803C21.7799 70.5266 21.8304 70.0898 21.9277 69.6699C22.0195 69.2445 22.1356 68.8968 22.2761 68.6267L23.4266 69.0506C23.3138 69.3265 23.2117 69.6466 23.1204 70.0112C23.0291 70.3702 22.9822 70.7074 22.9798 71.0228C22.9749 71.6537 23.1064 72.1804 23.3743 72.6031C23.6423 73.0202 24.0383 73.3359 24.5623 73.5502C25.0865 73.7591 25.7331 73.8664 26.5023 73.8724C27.2383 73.878 27.8671 73.7833 28.3888 73.5881C28.9106 73.3874 29.3113 73.0888 29.5911 72.6926C29.8654 72.2907 30.0048 71.7882 30.0095 71.185C30.0132 70.7036 29.9667 70.2688 29.8701 69.8807C29.768 69.4925 29.649 69.1402 29.513 68.8237L30.7415 68.8332C30.8941 69.1387 31.0105 69.48 31.0906 69.8569C31.1707 70.2283 31.2088 70.6713 31.2048 71.1859Z" fill="url(#paint12_linear_38_2527)"/>
<path d="M22.9348 60.8198C23.1785 59.7629 23.5967 59.033 24.1893 58.6301C24.782 58.2273 25.5987 58.1459 26.6394 58.3858L32.6653 59.7754L32.4397 60.7541L31.0696 60.7108L31.0547 60.7755C31.3211 61.0981 31.5337 61.4197 31.6926 61.7403C31.8461 62.0597 31.9385 62.4104 31.9697 62.7924C31.9967 63.1678 31.9511 63.6116 31.833 64.1238C31.7087 64.6631 31.5036 65.1212 31.2179 65.4983C30.9334 65.87 30.5718 66.133 30.133 66.2874C29.6954 66.4364 29.1827 66.4431 28.595 66.3076C27.7106 66.1037 27.112 65.5965 26.7991 64.7861C26.4863 63.9756 26.4736 62.8483 26.7612 61.404L27.049 59.8603L26.5071 59.7353C25.7414 59.5588 25.1669 59.5995 24.7837 59.8576C24.4005 60.1156 24.1399 60.5439 24.0019 61.1425C23.8949 61.6062 23.8604 62.064 23.8982 62.5156C23.936 62.9673 24.0031 63.403 24.0994 63.8228L22.9851 64.0003C22.8722 63.554 22.8026 63.0553 22.7764 62.504C22.7502 61.9528 22.803 61.3914 22.9348 60.8198ZM27.9917 60.0947L27.7368 61.4585C27.525 62.5739 27.526 63.3948 27.7397 63.9211C27.9534 64.4474 28.3515 64.7777 28.9338 64.912C29.4407 65.0289 29.8509 64.9616 30.1644 64.7102C30.478 64.4588 30.6932 64.0797 30.8101 63.5728C30.9916 62.7855 30.9218 62.0908 30.6007 61.4885C30.2795 60.8863 29.6822 60.4845 28.8086 60.2831L27.9917 60.0947Z" fill="url(#paint13_linear_38_2527)"/>
<path d="M33.876 50.4741C34.3996 50.7261 34.7773 51.0706 35.0091 51.5076C35.2384 51.9373 35.3252 52.4397 35.2695 53.0148C35.2162 53.5848 35.0276 54.2065 34.7036 54.8796C34.4276 55.4531 34.144 55.9276 33.8526 56.3033C33.5613 56.6789 33.2577 56.9842 32.942 57.2192L31.7976 56.6684C32.1229 56.4135 32.4645 56.0866 32.8223 55.6877C33.1802 55.2887 33.4755 54.8474 33.7082 54.3637C34.049 53.6557 34.1815 53.0869 34.1057 52.6574C34.03 52.2278 33.7951 51.9183 33.4012 51.7287C33.1768 51.6207 32.9486 51.5907 32.7167 51.6388C32.4822 51.6794 32.2131 51.811 31.9096 52.0334C31.601 52.2533 31.2223 52.5808 30.7735 53.0158C30.322 53.4434 29.9067 53.8023 29.5274 54.0927C29.1456 54.3757 28.7622 54.5535 28.3771 54.6261C27.9945 54.6938 27.5763 54.6184 27.1226 54.4C26.4295 54.0664 26.0328 53.5316 25.9326 52.7955C25.8298 52.0521 25.998 51.2241 26.4371 50.3116C26.6747 49.8179 26.9466 49.3807 27.2527 48.9999C27.5562 48.6116 27.8803 48.2701 28.2248 47.9754L29.018 48.873C28.7102 49.1425 28.414 49.4452 28.1295 49.7811C27.845 50.1171 27.6068 50.4845 27.4148 50.8834C27.1388 51.4569 27.0211 51.9438 27.0618 52.3441C27.1049 52.7395 27.291 53.0164 27.6201 53.1748C27.8744 53.2971 28.1175 53.3281 28.3492 53.2677C28.5834 53.2023 28.8483 53.0473 29.1441 52.8028C29.4399 52.5582 29.8086 52.2259 30.2503 51.8059C30.687 51.3835 31.0975 51.0345 31.482 50.7589C31.8614 50.481 32.2437 50.3118 32.6289 50.2516C33.0115 50.1839 33.4272 50.2581 33.876 50.4741Z" fill="url(#paint14_linear_38_2527)"/>
<path d="M32.1865 40.7945C32.6648 40.185 33.2097 39.7685 33.8213 39.545C34.4328 39.3215 35.0729 39.2857 35.7416 39.4376C36.4059 39.5861 37.0623 39.9148 37.711 40.4238L38.3836 40.9517L34.5043 45.895C35.3548 46.5413 36.1587 46.8345 36.9161 46.7747C37.6736 46.7149 38.3409 46.3171 38.9183 45.5814C39.2736 45.1286 39.5466 44.6957 39.7371 44.2825C39.9277 43.8693 40.0894 43.4123 40.2221 42.9115L41.1755 43.6597C41.053 44.1474 40.8887 44.5988 40.6826 45.0139C40.4799 45.4246 40.1889 45.8715 39.8097 46.3548C39.2699 47.0426 38.6592 47.5341 37.9774 47.8291C37.2947 48.1164 36.5703 48.188 35.804 48.0439C35.0378 47.8998 34.2607 47.5186 33.4727 46.9003C32.7022 46.2956 32.1369 45.6445 31.7769 44.9469C31.4159 44.2416 31.2675 43.5342 31.3318 42.8249C31.3994 42.1113 31.6843 41.4345 32.1865 40.7945ZM33.0644 41.5045C32.61 42.0835 32.4372 42.6936 32.5461 43.3347C32.655 43.9759 33.0233 44.5956 33.6512 45.1938L36.6234 41.4064C36.1934 41.0759 35.766 40.8496 35.3414 40.7274C34.9158 40.5974 34.5113 40.593 34.1278 40.7141C33.74 40.8318 33.3855 41.0953 33.0644 41.5045Z" fill="url(#paint15_linear_38_2527)"/>
<path d="M40.6718 32.077C40.8117 31.9596 40.965 31.8454 41.1319 31.7343C41.2952 31.619 41.4468 31.5242 41.5869 31.45L42.275 32.5413C42.1357 32.6077 41.9889 32.6911 41.8348 32.7915C41.6807 32.892 41.5422 32.9937 41.4192 33.0969C41.1395 33.3317 40.9225 33.6112 40.7685 33.9356C40.6151 34.2521 40.5341 34.5946 40.5254 34.9631C40.5132 35.3273 40.5786 35.7023 40.7216 36.0879C40.8611 36.4693 41.082 36.8402 41.3844 37.2005L44.5218 40.9394L43.4599 41.8305L37.6119 34.8614L38.4894 34.1251L39.6817 35.3135L39.7262 35.2761C39.6533 34.8966 39.6297 34.5155 39.6553 34.1328C39.6774 33.7459 39.7686 33.3767 39.9289 33.0255C40.0935 32.6706 40.3411 32.3545 40.6718 32.077Z" fill="url(#paint16_linear_38_2527)"/>
<path d="M53.4132 31.9171C53.692 32.4269 53.7983 32.927 53.7321 33.4173C53.6681 33.9001 53.446 34.359 53.0658 34.794C52.6904 35.2263 52.175 35.6217 51.5195 35.9801C50.9611 36.2854 50.4541 36.5059 49.9985 36.6415C49.5429 36.7772 49.1183 36.8485 48.7248 36.8555L48.1155 35.7412C48.5284 35.7236 48.9965 35.6568 49.5197 35.541C50.0429 35.4252 50.54 35.2385 51.011 34.981C51.7004 34.6039 52.1395 34.2188 52.3281 33.8255C52.5167 33.4323 52.5061 33.0439 52.2964 32.6603C52.1769 32.4418 52.0089 32.2845 51.7924 32.1885C51.5781 32.0849 51.2828 32.0351 50.9065 32.039C50.5276 32.0381 50.029 32.0837 49.4108 32.1757C48.7948 32.2603 48.2481 32.3101 47.7707 32.3252C47.2955 32.3328 46.8802 32.2539 46.525 32.0887C46.1746 31.9208 45.8786 31.6159 45.6369 31.1741C45.2679 30.4992 45.257 29.8334 45.6044 29.1768C45.9539 28.5126 46.5729 27.9376 47.4614 27.4517C47.9421 27.1889 48.4178 26.9918 48.8885 26.8606C49.3613 26.7219 49.8236 26.633 50.2754 26.5941L50.3972 27.7858C49.9901 27.8255 49.573 27.8991 49.146 28.0064C48.7191 28.1137 48.3114 28.2736 47.923 28.486C47.3646 28.7913 46.9853 29.1186 46.7852 29.4677C46.5899 29.8141 46.5799 30.1476 46.7551 30.468C46.8905 30.7157 47.07 30.8824 47.2936 30.9683C47.522 31.0515 47.8277 31.0799 48.2105 31.0535C48.5934 31.027 49.0867 30.9717 49.6903 30.8876C50.2913 30.7986 50.8283 30.7541 51.3013 30.7541C51.7717 30.7492 52.181 30.8344 52.5292 31.0098C52.8796 31.1777 53.1742 31.4801 53.4132 31.9171Z" fill="url(#paint17_linear_38_2527)"/>
<path d="M70.9684 30.3031C70.15 30.3347 69.4218 30.1939 68.7839 29.8808C68.146 29.5676 67.6396 29.0721 67.2645 28.3943C66.8894 27.7166 66.6816 26.8524 66.6411 25.8017C66.5986 24.7013 66.7464 23.7957 67.0844 23.0848C67.4278 22.3682 67.9165 21.8288 68.5504 21.4665C69.1844 21.1042 69.9133 20.9072 70.7372 20.8753C71.1907 20.8578 71.6293 20.888 72.0532 20.9657C72.4824 21.0378 72.8352 21.1377 73.1115 21.2655L72.7413 22.4344C72.4605 22.3345 72.1359 22.2474 71.7676 22.173C71.4047 22.0984 71.0657 22.0672 70.7505 22.0793C70.1201 22.1037 69.6 22.2594 69.1902 22.5466C68.786 22.8336 68.4889 23.2438 68.299 23.7772C68.1147 24.3105 68.0374 24.9614 68.0671 25.73C68.0955 26.4655 68.2193 27.0893 68.4384 27.6014C68.6631 28.1133 68.9798 28.4998 69.3886 28.7609C69.8028 29.0163 70.3112 29.1323 70.9139 29.109C71.395 29.0905 71.8272 29.0239 72.2104 28.9094C72.5935 28.7894 72.9399 28.6542 73.2498 28.5038L73.2972 29.7314C72.999 29.898 72.6635 30.03 72.2907 30.1275C71.9234 30.2247 71.4826 30.2833 70.9684 30.3031Z" fill="url(#paint18_linear_38_2527)"/>
<path d="M80.9825 21.5552C82.0495 21.7502 82.7978 22.1346 83.2273 22.7081C83.6569 23.2817 83.7756 24.0938 83.5836 25.1445L82.4714 31.2277L81.4834 31.0471L81.4639 29.6765L81.3986 29.6646C81.0885 29.9454 80.7769 30.1725 80.4639 30.346C80.152 30.5139 79.8059 30.6223 79.4257 30.6709C79.0519 30.7151 78.6065 30.6899 78.0894 30.5953C77.545 30.4958 77.0779 30.312 76.6882 30.0438C76.3038 29.7767 76.0245 29.4274 75.8502 28.9962C75.6814 28.5659 75.6512 28.0541 75.7596 27.4607C75.9229 26.5679 76.4021 25.9467 77.1973 25.5971C77.9926 25.2474 79.1182 25.1832 80.5742 25.4044L82.1294 25.6212L82.2294 25.0741C82.3707 24.3011 82.3037 23.7291 82.0284 23.3581C81.7531 22.9871 81.3133 22.7464 80.709 22.6359C80.2409 22.5503 79.7821 22.5368 79.3326 22.5952C78.8831 22.6537 78.4509 22.7406 78.036 22.856L77.8077 21.7511C78.2483 21.6179 78.7434 21.5255 79.2928 21.4741C79.8423 21.4227 80.4055 21.4497 80.9825 21.5552ZM81.9384 26.5735L80.5643 26.3814C79.4404 26.2209 78.6205 26.2595 78.1045 26.4971C77.5885 26.7346 77.2768 27.1474 77.1693 27.7353C77.0757 28.247 77.1617 28.6537 77.4272 28.9554C77.6927 29.2571 78.0813 29.4547 78.593 29.5482C79.3878 29.6935 80.0786 29.592 80.6655 29.2436C81.2523 28.8952 81.6264 28.2801 81.7876 27.3983L81.9384 26.5735Z" fill="url(#paint19_linear_38_2527)"/>
<path d="M91.6824 31.9289C91.4561 32.4641 91.1302 32.858 90.7049 33.1107C90.2868 33.3605 89.7892 33.4715 89.2121 33.4437C88.6402 33.4181 88.0101 33.2598 87.3221 32.9688C86.736 32.7208 86.2482 32.4605 85.8589 32.1877C85.4696 31.9148 85.15 31.6264 84.9 31.3224L85.3948 30.1527C85.6651 30.4654 86.0082 30.7907 86.4239 31.1288C86.8397 31.4669 87.2948 31.7405 87.7892 31.9496C88.5129 32.2557 89.0875 32.3605 89.5128 32.264C89.9382 32.1676 90.236 31.918 90.4063 31.5154C90.5033 31.286 90.5222 31.0567 90.463 30.8273C90.411 30.5951 90.2666 30.3327 90.0298 30.0403C89.7951 29.7427 89.4497 29.3803 88.9936 28.953C88.5446 28.5228 88.166 28.1253 87.8576 27.7606C87.5565 27.3929 87.3603 27.0185 87.2691 26.6374C87.1831 26.2585 87.2381 25.8372 87.4343 25.3734C87.7339 24.6649 88.2489 24.2429 88.9793 24.1072C89.7169 23.9685 90.552 24.0964 91.4847 24.4909C91.9893 24.7043 92.4392 24.9547 92.8344 25.242C93.2368 25.5264 93.5936 25.8335 93.9047 26.1634L93.0466 26.9991C92.7625 26.7047 92.4458 26.4236 92.0965 26.1556C91.7471 25.8877 91.3686 25.6675 90.9609 25.4951C90.3747 25.2472 89.8827 25.1532 89.4848 25.2132C89.092 25.2754 88.8244 25.4747 88.6822 25.8111C88.5722 26.071 88.553 26.3153 88.6246 26.5438C88.7013 26.7745 88.8689 27.0317 89.1275 27.3153C89.386 27.5989 89.7358 27.9511 90.1767 28.3719C90.6197 28.7876 90.9882 29.1808 91.282 29.5515C91.5781 29.917 91.7655 30.2907 91.8443 30.6725C91.9304 31.0514 91.8764 31.4702 91.6824 31.9289Z" fill="url(#paint20_linear_38_2527)"/>
<path d="M101.598 29.9765C102.227 30.4277 102.667 30.9538 102.917 31.555C103.167 32.1562 103.231 32.7941 103.109 33.4688C102.99 34.1389 102.69 34.8092 102.21 35.4795L101.712 36.1745L96.6034 32.5154C95.995 33.3933 95.7372 34.2093 95.8301 34.9634C95.923 35.7175 96.3496 36.3668 97.1099 36.9114C97.5778 37.2465 98.0223 37.5003 98.4434 37.6726C98.8646 37.8449 99.3282 37.9864 99.8343 38.0971L99.1286 39.0823C98.636 38.9813 98.1778 38.8369 97.7541 38.6492C97.3349 38.4646 96.8757 38.1935 96.3763 37.8358C95.6655 37.3266 95.1478 36.738 94.8232 36.0698C94.5063 35.4003 94.403 34.6797 94.5134 33.9079C94.6238 33.1361 94.9706 32.343 95.5539 31.5288C96.1243 30.7325 96.7501 30.1392 97.4312 29.749C98.12 29.3575 98.8202 29.1783 99.5316 29.2115C100.248 29.2478 100.936 29.5028 101.598 29.9765ZM100.927 30.8846C100.328 30.456 99.7113 30.3101 99.0755 30.4469C98.4397 30.5838 97.8368 30.9789 97.2666 31.6324L101.18 34.436C101.492 33.9919 101.699 33.555 101.803 33.1254C101.914 32.6946 101.901 32.2902 101.763 31.9124C101.628 31.5301 101.35 31.1875 100.927 30.8846Z" fill="url(#paint21_linear_38_2527)"/>
<path d="M110.692 38.1063C110.815 38.241 110.936 38.3892 111.054 38.551C111.176 38.7091 111.278 38.8565 111.358 38.9932L110.298 39.7283C110.225 39.592 110.136 39.449 110.028 39.2994C109.921 39.1498 109.814 39.0159 109.705 38.8976C109.458 38.6283 109.17 38.4238 108.839 38.284C108.516 38.1446 108.17 38.0786 107.802 38.086C107.437 38.0897 107.066 38.1714 106.687 38.3311C106.312 38.4871 105.951 38.724 105.604 39.0417L102.006 42.3393L101.069 41.3173L107.776 35.1708L108.55 36.0154L107.415 37.2583L107.454 37.3012C107.83 37.2118 108.21 37.1716 108.593 37.1805C108.981 37.1857 109.354 37.2607 109.712 37.4056C110.073 37.5545 110.4 37.7881 110.692 38.1063Z" fill="url(#paint22_linear_38_2527)"/>
<path d="M111.395 50.8371C110.898 51.1381 110.403 51.2664 109.91 51.222C109.425 51.1794 108.957 50.9778 108.505 50.6172C108.057 50.2612 107.639 49.7638 107.252 49.1248C106.922 48.5805 106.68 48.0837 106.524 47.6345C106.368 47.1853 106.278 46.7643 106.254 46.3715L107.34 45.7135C107.376 46.1253 107.463 46.5899 107.602 47.1075C107.741 47.6251 107.949 48.1135 108.228 48.5726C108.635 49.2447 109.039 49.6663 109.44 49.8374C109.841 50.0084 110.229 49.9807 110.603 49.7542C110.816 49.6252 110.966 49.4504 111.052 49.2298C111.146 49.0112 111.183 48.714 111.162 48.3382C111.146 47.9596 111.079 47.4635 110.959 46.85C110.848 46.2383 110.774 45.6944 110.738 45.2181C110.709 44.7437 110.769 44.3254 110.919 43.9631C111.071 43.6057 111.362 43.2965 111.793 43.0356C112.451 42.637 113.116 42.5968 113.787 42.9147C114.466 43.2345 115.068 43.8276 115.593 44.6937C115.876 45.1623 116.094 45.6288 116.246 46.0932C116.406 46.5595 116.515 47.0174 116.574 47.467L115.389 47.6414C115.331 47.2364 115.239 46.823 115.113 46.4012C114.987 45.9794 114.809 45.5792 114.58 45.2005C114.25 44.6562 113.906 44.2918 113.549 44.1073C113.194 43.9275 112.86 43.9322 112.548 44.1214C112.307 44.2677 112.148 44.4543 112.072 44.6815C111.999 44.9134 111.984 45.22 112.027 45.6013C112.071 45.9826 112.148 46.473 112.259 47.0723C112.374 47.6688 112.442 48.2033 112.463 48.6758C112.489 49.1455 112.422 49.5582 112.262 49.9138C112.11 50.2713 111.821 50.579 111.395 50.8371Z" fill="url(#paint23_linear_38_2527)"/>
<defs>
<filter id="filter0_d_38_2527" x="0.507824" y="0.325369" width="148.038" height="148.038" filterUnits="userSpaceOnUse" color-interpolation-filters="sRGB">
<feFlood flood-opacity="0" result="BackgroundImageFix"/>
<feColorMatrix in="SourceAlpha" type="matrix" values="0 0 0 0 0 0 0 0 0 0 0 0 0 0 0 0 0 0 127 0" result="hardAlpha"/>
<feOffset dx="2.50911" dy="3.76367"/>
<feGaussianBlur stdDeviation="6.90006"/>
<feComposite in2="hardAlpha" operator="out"/>
<feColorMatrix type="matrix" values="0 0 0 0 0 0 0 0 0 0 0 0 0 0 0 0 0 0 0.12 0"/>
<feBlend mode="normal" in2="BackgroundImageFix" result="effect1_dropShadow_38_2527"/>
<feBlend mode="normal" in="SourceGraphic" in2="effect1_dropShadow_38_2527" result="shape"/>
</filter>
<linearGradient id="paint0_linear_38_2527" x1="120.793" y1="71.5078" x2="119.892" y2="80.4626" gradientUnits="userSpaceOnUse">
<stop stop-color="#EE522C"/>
<stop offset="1" stop-color="#F58D1B"/>
</linearGradient>
<linearGradient id="paint1_linear_38_2527" x1="119.82" y1="81.581" x2="116.662" y2="91.0691" gradientUnits="userSpaceOnUse">
<stop stop-color="#EE522C"/>
<stop offset="1" stop-color="#F58D1B"/>
</linearGradient>
<linearGradient id="paint2_linear_38_2527" x1="116.268" y1="92.0374" x2="111.633" y2="99.7524" gradientUnits="userSpaceOnUse">
<stop stop-color="#EE522C"/>
<stop offset="1" stop-color="#F58D1B"/>
</linearGradient>
<linearGradient id="paint3_linear_38_2527" x1="111.113" y1="100.695" x2="104.224" y2="107.943" gradientUnits="userSpaceOnUse">
<stop stop-color="#EE522C"/>
<stop offset="1" stop-color="#F58D1B"/>
</linearGradient>
<linearGradient id="paint4_linear_38_2527" x1="103.435" y1="108.615" x2="97.6708" y2="112.586" gradientUnits="userSpaceOnUse">
<stop stop-color="#EE522C"/>
<stop offset="1" stop-color="#F58D1B"/>
</linearGradient>
<linearGradient id="paint5_linear_38_2527" x1="96.0234" y1="113.763" x2="87.7608" y2="117.331" gradientUnits="userSpaceOnUse">
<stop stop-color="#EE522C"/>
<stop offset="1" stop-color="#F58D1B"/>
</linearGradient>
<linearGradient id="paint6_linear_38_2527" x1="74.7507" y1="119.799" x2="65.7639" y2="119.313" gradientUnits="userSpaceOnUse">
<stop stop-color="#EE522C"/>
<stop offset="1" stop-color="#F58D1B"/>
</linearGradient>
<linearGradient id="paint7_linear_38_2527" x1="64.7154" y1="119.294" x2="55.0939" y2="116.568" gradientUnits="userSpaceOnUse">
<stop stop-color="#EE522C"/>
<stop offset="1" stop-color="#F58D1B"/>
</linearGradient>
<linearGradient id="paint8_linear_38_2527" x1="54.1373" y1="116.222" x2="46.2091" y2="111.963" gradientUnits="userSpaceOnUse">
<stop stop-color="#EE522C"/>
<stop offset="1" stop-color="#F58D1B"/>
</linearGradient>
<linearGradient id="paint9_linear_38_2527" x1="45.2777" y1="111.493" x2="37.7118" y2="104.954" gradientUnits="userSpaceOnUse">
<stop stop-color="#EE522C"/>
<stop offset="1" stop-color="#F58D1B"/>
</linearGradient>
<linearGradient id="paint10_linear_38_2527" x1="37.0214" y1="104.202" x2="32.7807" y2="98.6332" gradientUnits="userSpaceOnUse">
<stop stop-color="#EE522C"/>
<stop offset="1" stop-color="#F58D1B"/>
</linearGradient>
<linearGradient id="paint11_linear_38_2527" x1="31.5134" y1="97.0356" x2="27.5803" y2="88.9404" gradientUnits="userSpaceOnUse">
<stop stop-color="#EE522C"/>
<stop offset="1" stop-color="#F58D1B"/>
</linearGradient>
<linearGradient id="paint12_linear_38_2527" x1="24.4997" y1="76.231" x2="24.5691" y2="67.2313" gradientUnits="userSpaceOnUse">
<stop stop-color="#EE522C"/>
<stop offset="1" stop-color="#F58D1B"/>
</linearGradient>
<linearGradient id="paint13_linear_38_2527" x1="24.5205" y1="66.1688" x2="26.7674" y2="56.4245" gradientUnits="userSpaceOnUse">
<stop stop-color="#EE522C"/>
<stop offset="1" stop-color="#F58D1B"/>
</linearGradient>
<linearGradient id="paint14_linear_38_2527" x1="27.0807" y1="55.3471" x2="30.9837" y2="47.2375" gradientUnits="userSpaceOnUse">
<stop stop-color="#EE522C"/>
<stop offset="1" stop-color="#F58D1B"/>
</linearGradient>
<linearGradient id="paint15_linear_38_2527" x1="31.3013" y1="46.3991" x2="37.4749" y2="38.5323" gradientUnits="userSpaceOnUse">
<stop stop-color="#EE522C"/>
<stop offset="1" stop-color="#F58D1B"/>
</linearGradient>
<linearGradient id="paint16_linear_38_2527" x1="38.1689" y1="37.7851" x2="43.5311" y2="33.2854" gradientUnits="userSpaceOnUse">
<stop stop-color="#EE522C"/>
<stop offset="1" stop-color="#F58D1B"/>
</linearGradient>
<linearGradient id="paint17_linear_38_2527" x1="45.0512" y1="31.9196" x2="52.9477" y2="27.6016" gradientUnits="userSpaceOnUse">
<stop stop-color="#EE522C"/>
<stop offset="1" stop-color="#F58D1B"/>
</linearGradient>
<linearGradient id="paint18_linear_38_2527" x1="65.6183" y1="23.8387" x2="74.6116" y2="23.4915" gradientUnits="userSpaceOnUse">
<stop stop-color="#EE522C"/>
<stop offset="1" stop-color="#F58D1B"/>
</linearGradient>
<linearGradient id="paint19_linear_38_2527" x1="75.7117" y1="23.3842" x2="85.5487" y2="25.1826" gradientUnits="userSpaceOnUse">
<stop stop-color="#EE522C"/>
<stop offset="1" stop-color="#F58D1B"/>
</linearGradient>
<linearGradient id="paint20_linear_38_2527" x1="86.4862" y1="25.3774" x2="94.7753" y2="28.8834" gradientUnits="userSpaceOnUse">
<stop stop-color="#EE522C"/>
<stop offset="1" stop-color="#F58D1B"/>
</linearGradient>
<linearGradient id="paint21_linear_38_2527" x1="95.9595" y1="29.3375" x2="104.089" y2="35.1608" gradientUnits="userSpaceOnUse">
<stop stop-color="#EE522C"/>
<stop offset="1" stop-color="#F58D1B"/>
</linearGradient>
<linearGradient id="paint22_linear_38_2527" x1="104.88" y1="35.8549" x2="109.609" y2="41.0157" gradientUnits="userSpaceOnUse">
<stop stop-color="#EE522C"/>
<stop offset="1" stop-color="#F58D1B"/>
</linearGradient>
<linearGradient id="paint23_linear_38_2527" x1="111.023" y1="42.4833" x2="115.685" y2="50.1813" gradientUnits="userSpaceOnUse">
<stop stop-color="#EE522C"/>
<stop offset="1" stop-color="#F58D1B"/>
</linearGradient>
</defs>
</svg>
