<svg width="91" height="91" viewBox="0 0 91 91" fill="none" xmlns="http://www.w3.org/2000/svg">
<g filter="url(#filter0_d_38_2703)">
<circle cx="43.6221" cy="43.6221" r="36.6221" fill="white"/>
</g>
<path d="M68.889 46.8589C68.9388 46.3633 69.0849 45.9366 69.3272 45.5788C69.5695 45.2209 69.9106 44.9576 70.3504 44.7887C70.7901 44.6199 71.3281 44.5674 71.9644 44.6314C72.6307 44.6984 73.1637 44.8637 73.5634 45.1271C73.9661 45.3942 74.2499 45.734 74.4148 46.1463C74.5796 46.5586 74.6369 47.0142 74.5868 47.5132C74.5591 47.7877 74.5041 48.0494 74.4215 48.2982C74.342 48.5506 74.2522 48.7547 74.152 48.9103L73.479 48.589C73.5629 48.4283 73.6427 48.2401 73.7185 48.0245C73.7939 47.8123 73.8413 47.6107 73.8605 47.4198C73.8989 47.0381 73.8488 46.7117 73.7103 46.4407C73.5715 46.1731 73.3495 45.9597 73.0442 45.8004C72.7385 45.6445 72.353 45.5432 71.8875 45.4963C71.4422 45.4516 71.056 45.4736 70.7292 45.5625C70.4019 45.6547 70.1425 45.813 69.9508 46.0372C69.7621 46.2652 69.6495 46.5616 69.6127 46.9266C69.5834 47.2179 69.5871 47.4838 69.6238 47.7243C69.6639 47.9651 69.7162 48.1851 69.7807 48.3844L69.0373 48.3096C68.9621 48.116 68.9108 47.9029 68.8835 47.6701C68.8558 47.4407 68.8576 47.1703 68.889 46.8589Z" fill="url(#paint0_linear_38_2703)"/>
<path d="M73.2955 53.6249C73.0871 54.2507 72.792 54.6686 72.41 54.8784C72.028 55.0882 71.5289 55.0905 70.9126 54.8853L67.3443 53.6975L67.5372 53.1179L68.3642 53.2229L68.3769 53.1846C68.2342 52.974 68.124 52.767 68.0462 52.5638C67.9717 52.3616 67.9359 52.144 67.939 51.9109C67.9443 51.6821 67.9974 51.416 68.0984 51.1127C68.2046 50.7933 68.3551 50.5278 68.5498 50.3159C68.7434 50.1072 68.9775 49.9688 69.252 49.9006C69.5255 49.8355 69.8363 49.861 70.1843 49.9768C70.708 50.1512 71.0413 50.4926 71.1841 51.0013C71.3269 51.5099 71.2697 52.1932 71.0125 53.0511L70.7494 53.9691L71.0703 54.0759C71.5238 54.2269 71.8739 54.2352 72.1208 54.1011C72.3676 53.9669 72.55 53.7225 72.668 53.3681C72.7594 53.0935 72.8067 52.8184 72.8098 52.5427C72.8129 52.2671 72.7973 51.9994 72.7632 51.7398L73.448 51.6964C73.4907 51.9731 73.5041 52.2791 73.4882 52.6143C73.4724 52.9495 73.4082 53.2864 73.2955 53.6249ZM70.1922 53.773L70.425 52.9619C70.6173 52.2988 70.664 51.8018 70.5649 51.4709C70.4658 51.1399 70.2438 50.9171 69.8989 50.8023C69.5988 50.7023 69.3465 50.7195 69.1423 50.8536C68.938 50.9878 68.7859 51.205 68.686 51.5051C68.5308 51.9713 68.5331 52.396 68.6929 52.779C68.8526 53.1621 69.1912 53.4397 69.7085 53.6119L70.1922 53.773Z" fill="url(#paint1_linear_38_2703)"/>
<path d="M66.0995 59.2133C65.7966 59.0314 65.5872 58.8015 65.4714 58.5239C65.3567 58.2508 65.3323 57.9417 65.3983 57.5966C65.4625 57.2544 65.6116 56.8885 65.8456 56.4991C66.0449 56.1673 66.2433 55.8959 66.4408 55.6847C66.6383 55.4736 66.8392 55.3057 67.0436 55.1812L67.7057 55.5789C67.4944 55.715 67.2692 55.8938 67.0301 56.1153C66.791 56.3368 66.5875 56.5875 66.4194 56.8673C66.1733 57.277 66.0611 57.614 66.0829 57.8783C66.1047 58.1427 66.2296 58.3433 66.4575 58.4802C66.5873 58.5582 66.7238 58.5892 66.8669 58.5731C67.0112 58.5616 67.1815 58.497 67.3778 58.3794C67.577 58.2635 67.8247 58.0864 68.1209 57.8482C68.4183 57.6146 68.6899 57.4206 68.9359 57.266C69.183 57.1161 69.4252 57.0299 69.6624 57.0075C69.8979 56.988 70.1469 57.0571 70.4094 57.2148C70.8104 57.4557 71.0206 57.8018 71.04 58.2532C71.0605 58.7092 70.9122 59.2011 70.5951 59.7291C70.4235 60.0147 70.2344 60.2642 70.0276 60.4776C69.8221 60.6957 69.6067 60.8843 69.3815 61.0435L68.9515 60.4554C69.153 60.3095 69.3494 60.1428 69.5405 59.9553C69.7316 59.7679 69.8965 59.5587 70.0352 59.3279C70.2345 58.9962 70.333 58.7079 70.3308 58.4632C70.3269 58.2214 70.2298 58.0433 70.0394 57.9289C69.8922 57.8405 69.7468 57.8081 69.6031 57.8317C69.4576 57.8582 69.2885 57.9371 69.0956 58.0686C68.9028 58.2001 68.6609 58.3807 68.3698 58.6102C68.0817 58.8415 67.8135 59.0298 67.5653 59.1751C67.3199 59.3222 67.0789 59.4031 66.8422 59.418C66.6067 59.4375 66.3592 59.3693 66.0995 59.2133Z" fill="url(#paint2_linear_38_2703)"/>
<path d="M66.5027 65.2418C66.1781 65.5833 65.8243 65.8042 65.4412 65.9044C65.0581 66.0046 64.6685 65.9895 64.2724 65.8592C63.8787 65.7311 63.5002 65.4943 63.1367 65.1489L62.7598 64.7907L65.3924 62.0207C64.9146 61.5806 64.4447 61.3569 63.9827 61.3496C63.5207 61.3423 63.0938 61.5448 62.702 61.957C62.4609 62.2107 62.2708 62.4572 62.1316 62.6964C61.9925 62.9356 61.8684 63.203 61.7593 63.4986L61.225 62.9908C61.3272 62.7026 61.4526 62.4387 61.6012 62.1993C61.7475 61.9623 61.9494 61.7084 62.2067 61.4376C62.573 61.0522 62.971 60.7897 63.4007 60.6502C63.8306 60.5155 64.2733 60.5138 64.7289 60.645C65.1845 60.7762 65.6331 61.0517 66.0747 61.4713C66.5065 61.8817 66.8113 62.3084 66.9892 62.7514C67.1672 63.1991 67.2164 63.6359 67.1368 64.0616C67.0549 64.4898 66.8435 64.8832 66.5027 65.2418ZM66.012 64.7615C66.3203 64.4371 66.46 64.0777 66.4309 63.6832C66.4018 63.2888 66.2144 62.8925 65.8686 62.4942L63.8516 64.6165C64.093 64.8413 64.3387 65.0029 64.5888 65.1013C64.839 65.2044 65.0836 65.2303 65.3227 65.179C65.5643 65.13 65.794 64.9908 66.012 64.7615Z" fill="url(#paint3_linear_38_2703)"/>
<path d="M60.8549 70.0204C60.7635 70.0834 60.664 70.1437 60.5566 70.2014C60.4511 70.2618 60.3539 70.3104 60.2648 70.3473L59.911 69.647C59.9992 69.6148 60.0929 69.5728 60.192 69.5208C60.291 69.4689 60.3808 69.4153 60.4611 69.3599C60.644 69.2339 60.7915 69.0771 60.9034 68.8896C61.0145 68.7068 61.0833 68.5041 61.1098 68.2816C61.1381 68.0618 61.1201 67.831 61.0558 67.5893C60.9933 67.3503 60.8809 67.113 60.7186 66.8775L59.0345 64.4332L59.7287 63.9549L62.8678 68.5109L62.2941 68.9062L61.6408 68.118L61.6117 68.1381C61.6339 68.372 61.6263 68.6041 61.5887 68.8343C61.5531 69.0673 61.4766 69.2855 61.3593 69.489C61.2392 69.6943 61.0711 69.8715 60.8549 70.0204Z" fill="url(#paint4_linear_38_2703)"/>
<path d="M53.1368 69.3651C52.9968 69.0407 52.9606 68.7319 53.0283 68.4387C53.0942 68.15 53.2546 67.8846 53.5093 67.6427C53.761 67.402 54.0954 67.1917 54.5125 67.0116C54.8678 66.8581 55.1872 66.7532 55.4708 66.6968C55.7543 66.6403 56.0155 66.621 56.2541 66.6389L56.5603 67.348C56.3093 67.3355 56.0221 67.3495 55.6987 67.3901C55.3754 67.4308 55.0638 67.5158 54.7641 67.6452C54.3254 67.8347 54.0378 68.0431 53.9015 68.2707C53.7651 68.4982 53.7496 68.734 53.855 68.978C53.915 69.1171 54.0079 69.2218 54.1336 69.2921C54.2575 69.3669 54.4335 69.4137 54.6616 69.4326C54.891 69.4545 55.1955 69.455 55.575 69.4341C55.9528 69.4176 56.2867 69.4182 56.5766 69.436C56.8648 69.4582 57.1118 69.5293 57.3176 69.6494C57.5203 69.7708 57.6824 69.9721 57.8038 70.2532C57.9892 70.6827 57.9583 71.0865 57.7109 71.4645C57.4619 71.847 57.0546 72.1603 56.4892 72.4045C56.1833 72.5365 55.8842 72.6291 55.5918 72.682C55.2976 72.7394 55.0127 72.7671 54.7369 72.7652L54.7303 72.0367C54.9791 72.0356 55.2358 72.0146 55.5004 71.9737C55.765 71.9327 56.0209 71.8589 56.268 71.7522C56.6233 71.5987 56.8714 71.422 57.0123 71.2218C57.1501 71.0231 57.1749 70.8217 57.0869 70.6178C57.0188 70.4602 56.9196 70.3491 56.789 70.2845C56.6554 70.2212 56.4719 70.1868 56.2386 70.1813C56.0052 70.1757 55.7034 70.1814 55.3332 70.1983C54.9642 70.2183 54.6365 70.215 54.3501 70.1884C54.065 70.1649 53.822 70.0902 53.621 69.9643C53.4183 69.8429 53.2569 69.6432 53.1368 69.3651Z" fill="url(#paint5_linear_38_2703)"/>
<path d="M42.4119 69.2857C42.9093 69.3125 43.3423 69.4388 43.7109 69.6643C44.0796 69.8898 44.3584 70.2183 44.5474 70.6498C44.7364 71.0813 44.8136 71.6164 44.7791 72.2548C44.7429 72.9236 44.6025 73.4637 44.3578 73.8751C44.1096 74.2897 43.7833 74.5889 43.3791 74.7726C42.9748 74.9563 42.5223 75.0347 42.0216 75.0076C41.746 74.9927 41.4821 74.9498 41.2298 74.8788C40.9739 74.8111 40.766 74.7307 40.6058 74.6378L40.8958 73.9508C41.0601 74.0271 41.2518 74.0981 41.4707 74.1639C41.6862 74.2295 41.8897 74.2674 42.0813 74.2778C42.4644 74.2985 42.7881 74.2334 43.0524 74.0826C43.3133 73.9315 43.5163 73.6998 43.6612 73.3875C43.8028 73.075 43.8863 72.6852 43.9115 72.218C43.9357 71.7711 43.8958 71.3864 43.7919 71.064C43.6847 70.7414 43.5146 70.4895 43.2817 70.3084C43.0453 70.1305 42.744 70.0316 42.3777 70.0118C42.0853 69.996 41.8199 70.012 41.5814 70.0597C41.3427 70.1109 41.1253 70.1733 40.9292 70.2469L40.9695 69.5009C41.1595 69.4168 41.37 69.3557 41.6013 69.3177C41.8292 69.2794 42.0994 69.2688 42.4119 69.2857Z" fill="url(#paint6_linear_38_2703)"/>
<path d="M35.8999 73.9984C35.2653 73.8186 34.8345 73.5427 34.6076 73.1706C34.3807 72.7986 34.3557 72.3001 34.5327 71.6751L35.5576 68.0566L36.1453 68.2231L36.0779 69.0539L36.1168 69.0649C36.3207 68.9128 36.5225 68.7933 36.722 68.7064C36.9206 68.6228 37.1363 68.5772 37.3693 68.5697C37.5981 68.5646 37.8663 68.6056 38.174 68.6927C38.4978 68.7844 38.7699 68.9227 38.9904 69.1076C39.2076 69.2915 39.3565 69.5191 39.4371 69.7903C39.5145 70.0605 39.5032 70.3721 39.4032 70.7251C39.2528 71.2561 38.9267 71.6045 38.4251 71.7702C37.9234 71.9359 37.2383 71.9098 36.3696 71.6917L35.4406 71.4706L35.3485 71.796C35.2182 72.2558 35.2257 72.6059 35.371 72.8465C35.5162 73.087 35.7686 73.2581 36.128 73.3599C36.4064 73.4388 36.6834 73.4735 36.9589 73.4641C37.2344 73.4547 37.5011 73.4271 37.7589 73.3812L37.8333 74.0633C37.5588 74.1185 37.2538 74.1458 36.9182 74.1451C36.5826 74.1445 36.2431 74.0956 35.8999 73.9984ZM35.6113 70.905L36.4321 71.1008C37.1032 71.2629 37.6018 71.2869 37.9279 71.1729C38.254 71.0589 38.4666 70.8271 38.5657 70.4774C38.6519 70.173 38.6233 69.9218 38.48 69.7238C38.3367 69.5258 38.1129 69.3837 37.8085 69.2975C37.3358 69.1636 36.9117 69.1852 36.5363 69.3621C36.1608 69.5391 35.8988 69.8899 35.7503 70.4145L35.6113 70.905Z" fill="url(#paint7_linear_38_2703)"/>
<path d="M29.9966 67.0719C30.1639 66.7606 30.3834 66.5404 30.6552 66.4114C30.9224 66.2837 31.23 66.2446 31.5779 66.294C31.9228 66.3417 32.2953 66.4731 32.6956 66.6882C33.0365 66.8713 33.3172 67.0565 33.5375 67.2436C33.7579 67.4308 33.9352 67.6235 34.0694 67.8217L33.7038 68.502C33.5577 68.2975 33.3684 68.0811 33.1357 67.853C32.9029 67.6248 32.6428 67.4334 32.3552 67.2789C31.9343 67.0528 31.5923 66.9569 31.3293 66.9913C31.0663 67.0258 30.8718 67.1601 30.746 67.3943C30.6743 67.5277 30.65 67.6655 30.6729 67.8077C30.6913 67.9513 30.7639 68.1183 30.8908 68.3087C31.0161 68.5021 31.2048 68.7411 31.457 69.0255C31.7045 69.3114 31.9114 69.5734 32.0776 69.8117C32.2392 70.0513 32.3368 70.2891 32.3706 70.5249C32.4013 70.7592 32.3442 71.0113 32.1993 71.2811C31.9779 71.6931 31.6422 71.9197 31.1923 71.9607C30.7379 72.003 30.2394 71.8785 29.6968 71.587C29.4033 71.4293 29.145 71.2523 28.9219 71.056C28.6943 70.8611 28.4956 70.655 28.3258 70.4377L28.8926 69.9801C29.048 70.1744 29.2239 70.3625 29.4203 70.5444C29.6167 70.7264 29.8335 70.8811 30.0707 71.0085C30.4116 71.1916 30.7043 71.2763 30.9486 71.2624C31.19 71.2469 31.3632 71.1413 31.4683 70.9456C31.5496 70.7944 31.575 70.6476 31.5445 70.5052C31.5111 70.3612 31.4241 70.196 31.2835 70.0097C31.1429 69.8234 30.951 69.5904 30.7078 69.3107C30.463 69.034 30.262 68.7751 30.105 68.5341C29.9463 68.2961 29.8539 68.0592 29.8277 67.8235C29.797 67.5892 29.8533 67.3387 29.9966 67.0719Z" fill="url(#paint8_linear_38_2703)"/>
<path d="M24.0162 67.7635C23.6597 67.4554 23.4224 67.1124 23.3042 66.7344C23.186 66.3565 23.1827 65.9666 23.2942 65.5648C23.4035 65.1656 23.6221 64.7762 23.95 64.3968L24.29 64.0034L27.1813 66.5022C27.5984 66.0042 27.7996 65.5243 27.7851 65.0624C27.7705 64.6006 27.5481 64.1837 27.1178 63.8118C26.853 63.583 26.5978 63.4047 26.3523 63.277C26.1068 63.1494 25.8338 63.038 25.5334 62.943L26.0154 62.3853C26.3081 62.4738 26.5776 62.5866 26.8238 62.7237C27.0675 62.8587 27.3306 63.0483 27.6133 63.2926C28.0156 63.6403 28.2965 64.0254 28.4562 64.4481C28.611 64.871 28.6337 65.3132 28.5241 65.7745C28.4145 66.2358 28.1606 66.6969 27.7623 67.1578C27.3728 67.6085 26.961 67.9332 26.5269 68.1318C26.088 68.3308 25.6541 68.4005 25.2251 68.3411C24.7935 68.2795 24.3905 68.0869 24.0162 67.7635ZM24.4728 67.2506C24.8114 67.5433 25.1771 67.6658 25.5697 67.6181C25.9623 67.5704 26.3493 67.3645 26.7308 67.0003L24.5156 65.0858C24.3025 65.3375 24.1527 65.5906 24.0662 65.845C23.975 66.0998 23.9607 66.3454 24.0232 66.5819C24.0836 66.8208 24.2334 67.0438 24.4728 67.2506Z" fill="url(#paint9_linear_38_2703)"/>
<path d="M18.9864 62.3522C18.9191 62.2638 18.8541 62.1674 18.7914 62.0628C18.7261 61.9603 18.6729 61.8655 18.6319 61.7783L19.3146 61.3916C19.3509 61.4782 19.3973 61.5697 19.4539 61.6663C19.5105 61.7628 19.5683 61.8498 19.6275 61.9275C19.762 62.1042 19.9256 62.244 20.1182 62.347C20.306 62.4493 20.5118 62.5083 20.7354 62.5242C20.9563 62.5421 21.1859 62.5132 21.4243 62.4374C21.66 62.3637 21.8917 62.2401 22.1193 62.0668L24.4809 60.2686L24.9916 60.9393L20.5897 64.2911L20.1677 63.7369L20.9239 63.0468L20.9025 63.0187C20.6699 63.0521 20.4377 63.0554 20.2059 63.0288C19.9715 63.0043 19.7499 62.9383 19.5412 62.8308C19.3303 62.7206 19.1454 62.561 18.9864 62.3522Z" fill="url(#paint10_linear_38_2703)"/>
<path d="M19.2816 54.6079C19.5995 54.4535 19.9063 54.4035 20.2022 54.4581C20.4936 54.511 20.7659 54.6594 21.019 54.9031C21.2706 55.1438 21.4957 55.4684 21.6943 55.8771C21.8634 56.2252 21.9825 56.5396 22.0515 56.8204C22.1206 57.1011 22.1515 57.3611 22.1443 57.6003L21.4496 57.9379C21.4509 57.6865 21.4241 57.4002 21.369 57.079C21.314 56.7578 21.2151 56.4504 21.0725 56.1567C20.8636 55.7269 20.6425 55.4489 20.4091 55.3229C20.1758 55.1968 19.9395 55.1918 19.7004 55.308C19.5642 55.3742 19.4637 55.4717 19.399 55.6004C19.3299 55.7275 19.291 55.9054 19.2823 56.1341C19.2707 56.3643 19.2838 56.6685 19.3216 57.0467C19.355 57.4234 19.3692 57.7569 19.3644 58.0474C19.3551 58.3362 19.2951 58.5862 19.1843 58.7971C19.0721 59.0051 18.8782 59.176 18.6027 59.3098C18.182 59.5142 17.7772 59.5013 17.3885 59.2712C16.9953 59.0394 16.6641 58.6465 16.395 58.0926C16.2494 57.7929 16.1436 57.4982 16.0777 57.2085C16.0072 56.9172 15.9668 56.6337 15.9564 56.3582L16.6838 56.319C16.6961 56.5675 16.7285 56.823 16.7812 57.0855C16.8339 57.348 16.9191 57.6004 17.0368 57.8425C17.2059 58.1906 17.3936 58.4306 17.5998 58.5624C17.8045 58.6911 18.0068 58.707 18.2066 58.6099C18.361 58.5349 18.4675 58.4308 18.5262 58.2975C18.5835 58.1611 18.6096 57.9763 18.6048 57.743C18.5999 57.5096 18.5807 57.2083 18.5473 56.8392C18.5109 56.4715 18.4995 56.144 18.5133 55.8567C18.5241 55.5708 18.5879 55.3247 18.7046 55.1183C18.8169 54.9104 19.0092 54.7402 19.2816 54.6079Z" fill="url(#paint11_linear_38_2703)"/>
<path d="M18.8556 43.9906C18.8517 44.4887 18.7457 44.9271 18.5375 45.3058C18.3293 45.6845 18.014 45.9782 17.5917 46.187C17.1694 46.3957 16.6385 46.4977 15.9991 46.4927C15.3294 46.4876 14.7834 46.3723 14.3611 46.1469C13.9355 45.9181 13.6215 45.6061 13.4193 45.2107C13.217 44.8154 13.1178 44.367 13.1217 43.8656C13.1238 43.5896 13.1545 43.324 13.2137 43.0687C13.2695 42.81 13.3401 42.5985 13.4256 42.4342L14.1253 42.692C14.0567 42.8598 13.9946 43.0545 13.939 43.2762C13.8835 43.4945 13.855 43.6996 13.8535 43.8914C13.8505 44.2751 13.9305 44.5954 14.0934 44.8525C14.2564 45.1061 14.4972 45.2981 14.816 45.4285C15.1347 45.5555 15.528 45.6208 15.9957 45.6244C16.4433 45.6279 16.8258 45.5702 17.143 45.4515C17.4603 45.3294 17.7041 45.1479 17.8742 44.9069C18.041 44.6625 18.1258 44.3569 18.1286 43.9901C18.1309 43.6973 18.1026 43.4329 18.0439 43.1968C17.9818 42.9608 17.9094 42.7465 17.8267 42.554L18.5738 42.5598C18.6666 42.7456 18.7374 42.9531 18.7861 43.1824C18.8348 43.4082 18.858 43.6777 18.8556 43.9906Z" fill="url(#paint12_linear_38_2703)"/>
<path d="M13.8248 37.698C13.973 37.0553 14.2274 36.6114 14.5878 36.3664C14.9482 36.1214 15.4449 36.0719 16.0778 36.2178L19.7425 37.0628L19.6052 37.6581L18.772 37.6317L18.763 37.6711C18.9249 37.8673 19.0543 38.0629 19.1509 38.2579C19.2443 38.4521 19.3004 38.6653 19.3194 38.8977C19.3358 39.1259 19.3081 39.3958 19.2363 39.7074C19.1607 40.0353 19.036 40.314 18.8622 40.5433C18.6892 40.7693 18.4693 40.9293 18.2024 41.0232C17.9363 41.1138 17.6245 41.1179 17.2671 41.0354C16.7293 40.9114 16.3652 40.603 16.1749 40.1101C15.9847 39.6173 15.977 38.9316 16.1519 38.0533L16.3269 37.1145L15.9973 37.0385C15.5317 36.9311 15.1823 36.9559 14.9493 37.1129C14.7162 37.2698 14.5577 37.5303 14.4738 37.8943C14.4087 38.1763 14.3877 38.4547 14.4107 38.7294C14.4337 39.0041 14.4745 39.269 14.5331 39.5243L13.8554 39.6322C13.7868 39.3608 13.7445 39.0575 13.7285 38.7223C13.7126 38.387 13.7447 38.0456 13.8248 37.698ZM16.9002 37.2571L16.7452 38.0865C16.6164 38.7648 16.617 39.264 16.7469 39.5841C16.8769 39.9042 17.119 40.105 17.4731 40.1867C17.7814 40.2578 18.0309 40.2169 18.2215 40.064C18.4122 39.9111 18.5431 39.6805 18.6142 39.3723C18.7246 38.8935 18.6821 38.471 18.4868 38.1047C18.2915 37.7385 17.9282 37.4941 17.397 37.3716L16.9002 37.2571Z" fill="url(#paint13_linear_38_2703)"/>
<path d="M20.4747 31.4174C20.7931 31.5706 21.0228 31.7801 21.1638 32.0459C21.3032 32.3073 21.356 32.6128 21.3221 32.9625C21.2897 33.3092 21.175 33.6872 20.978 34.0966C20.8101 34.4454 20.6376 34.734 20.4605 34.9624C20.2833 35.1909 20.0987 35.3765 19.9067 35.5194L19.2107 35.1845C19.4086 35.0295 19.6163 34.8307 19.8339 34.588C20.0515 34.3454 20.2311 34.077 20.3727 33.7829C20.5799 33.3523 20.6605 33.0064 20.6144 32.7451C20.5683 32.4839 20.4255 32.2957 20.1859 32.1804C20.0495 32.1147 19.9107 32.0965 19.7696 32.1257C19.627 32.1504 19.4634 32.2304 19.2788 32.3657C19.0912 32.4994 18.8609 32.6986 18.5879 32.9631C18.3133 33.2232 18.0607 33.4415 17.8301 33.618C17.5979 33.7901 17.3647 33.8983 17.1305 33.9424C16.8979 33.9836 16.6435 33.9378 16.3676 33.8049C15.9461 33.6021 15.7048 33.2768 15.6439 32.8292C15.5814 32.3771 15.6836 31.8735 15.9507 31.3186C16.0952 31.0184 16.2605 30.7524 16.4467 30.5208C16.6313 30.2847 16.8284 30.0771 17.0379 29.8978L17.5203 30.4437C17.3331 30.6076 17.153 30.7917 16.98 30.996C16.8069 31.2003 16.662 31.4237 16.5453 31.6663C16.3774 32.0151 16.3059 32.3112 16.3306 32.5547C16.3568 32.7951 16.47 32.9635 16.6702 33.0598C16.8248 33.1342 16.9726 33.1531 17.1136 33.1163C17.256 33.0766 17.4171 32.9823 17.597 32.8336C17.7769 32.6849 18.0011 32.4828 18.2697 32.2274C18.5353 31.9705 18.7849 31.7582 19.0187 31.5906C19.2495 31.4216 19.482 31.3187 19.7163 31.2821C19.949 31.2409 20.2018 31.286 20.4747 31.4174Z" fill="url(#paint14_linear_38_2703)"/>
<path d="M19.441 25.5405C19.7319 25.1698 20.0633 24.9165 20.4352 24.7806C20.8071 24.6447 21.1964 24.6229 21.603 24.7153C22.007 24.8056 22.4062 25.0055 22.8007 25.3151L23.2098 25.6361L20.8506 28.6423C21.3678 29.0354 21.8567 29.2137 22.3173 29.1773C22.7779 29.141 23.1838 28.8991 23.5349 28.4516C23.751 28.1763 23.917 27.913 24.0329 27.6617C24.1488 27.4104 24.2471 27.1325 24.3279 26.8279L24.9077 27.283C24.8332 27.5796 24.7333 27.8541 24.6079 28.1065C24.4846 28.3563 24.3077 28.6281 24.077 28.922C23.7488 29.3403 23.3773 29.6392 22.9627 29.8186C22.5476 29.9933 22.107 30.0369 21.641 29.9492C21.175 29.8616 20.7024 29.6298 20.2232 29.2537C19.7546 28.886 19.4108 28.49 19.1919 28.0658C18.9723 27.6368 18.8821 27.2067 18.9212 26.7753C18.9623 26.3413 19.1356 25.9297 19.441 25.5405ZM19.9749 25.9723C19.6985 26.3244 19.5935 26.6954 19.6597 27.0853C19.7259 27.4752 19.9499 27.8521 20.3317 28.2159L22.1393 25.9126C21.8778 25.7116 21.6179 25.574 21.3596 25.4997C21.1008 25.4206 20.8548 25.4179 20.6216 25.4916C20.3857 25.5632 20.1702 25.7234 19.9749 25.9723Z" fill="url(#paint15_linear_38_2703)"/>
<path d="M24.5932 20.2469C24.6783 20.1755 24.7716 20.106 24.873 20.0385C24.9723 19.9683 25.0646 19.9107 25.1497 19.8656L25.5682 20.5293C25.4835 20.5696 25.3943 20.6203 25.3005 20.6814C25.2068 20.7425 25.1226 20.8044 25.0478 20.8671C24.8776 21.0099 24.7457 21.1799 24.652 21.3772C24.5588 21.5697 24.5095 21.778 24.5042 22.002C24.4968 22.2236 24.5366 22.4516 24.6235 22.6861C24.7084 22.9181 24.8427 23.1436 25.0266 23.3628L26.9346 25.6366L26.2888 26.1785L22.7324 21.9402L23.266 21.4924L23.9911 22.2152L24.0182 22.1924C23.9739 21.9616 23.9595 21.7298 23.9751 21.4971C23.9885 21.2618 24.044 21.0373 24.1415 20.8237C24.2416 20.6079 24.3922 20.4156 24.5932 20.2469Z" fill="url(#paint16_linear_38_2703)"/>
<path d="M32.3335 20.1557C32.503 20.4657 32.5677 20.7698 32.5274 21.068C32.4885 21.3616 32.3535 21.6407 32.1222 21.9052C31.8939 22.1681 31.5805 22.4086 31.1818 22.6266C30.8423 22.8123 30.5339 22.9463 30.2568 23.0288C29.9797 23.1113 29.7215 23.1547 29.4822 23.159L29.1117 22.4813C29.3628 22.4706 29.6474 22.43 29.9656 22.3595C30.2839 22.2891 30.5862 22.1756 30.8726 22.019C31.2919 21.7897 31.5589 21.5554 31.6736 21.3163C31.7883 21.0771 31.7819 20.8409 31.6543 20.6076C31.5816 20.4748 31.4795 20.3791 31.3478 20.3207C31.2175 20.2577 31.0379 20.2274 30.8091 20.2298C30.5786 20.2292 30.2754 20.257 29.8994 20.313C29.5248 20.3644 29.1923 20.3947 28.902 20.4039C28.613 20.4085 28.3605 20.3605 28.1444 20.26C27.9313 20.1579 27.7513 19.9725 27.6044 19.7038C27.3799 19.2934 27.3733 18.8885 27.5845 18.4891C27.7971 18.0852 28.1736 17.7355 28.7139 17.44C29.0063 17.2802 29.2955 17.1603 29.5818 17.0805C29.8693 16.9962 30.1505 16.9422 30.4252 16.9185L30.4993 17.6432C30.2517 17.6674 29.9981 17.7121 29.7384 17.7774C29.4788 17.8426 29.2308 17.9399 28.9946 18.069C28.655 18.2547 28.4244 18.4537 28.3027 18.666C28.1839 18.8767 28.1778 19.0795 28.2844 19.2744C28.3667 19.425 28.4759 19.5264 28.6118 19.5786C28.7508 19.6293 28.9366 19.6465 29.1695 19.6304C29.4023 19.6143 29.7023 19.5807 30.0694 19.5296C30.4349 19.4755 30.7615 19.4484 31.0492 19.4484C31.3352 19.4454 31.5841 19.4972 31.7959 19.6039C32.009 19.706 32.1882 19.8899 32.3335 20.1557Z" fill="url(#paint17_linear_38_2703)"/>
<path d="M42.9867 19.1806C42.489 19.1998 42.0462 19.1142 41.6583 18.9237C41.2703 18.7332 40.9623 18.4319 40.7342 18.0197C40.5061 17.6075 40.3798 17.082 40.3551 16.443C40.3293 15.7738 40.4191 15.223 40.6247 14.7907C40.8335 14.3549 41.1307 14.0269 41.5163 13.8066C41.9018 13.5862 42.3451 13.4664 42.8462 13.447C43.1219 13.4364 43.3887 13.4547 43.6465 13.502C43.9075 13.5458 44.1221 13.6066 44.2901 13.6843L44.0649 14.3952C43.8942 14.3344 43.6968 14.2814 43.4728 14.2362C43.2521 14.1908 43.0459 14.1719 42.8543 14.1793C42.4709 14.1941 42.1546 14.2888 41.9054 14.4634C41.6595 14.638 41.4789 14.8874 41.3634 15.2118C41.2513 15.5361 41.2043 15.932 41.2223 16.3994C41.2396 16.8467 41.3149 17.226 41.4481 17.5375C41.5848 17.8488 41.7774 18.0838 42.026 18.2426C42.2779 18.3979 42.5871 18.4685 42.9536 18.4544C43.2462 18.4431 43.509 18.4026 43.7421 18.333C43.975 18.26 44.1857 18.1778 44.3742 18.0863L44.403 18.8329C44.2217 18.9342 44.0176 19.0145 43.7909 19.0737C43.5676 19.1329 43.2995 19.1685 42.9867 19.1806Z" fill="url(#paint18_linear_38_2703)"/>
<path d="M49.0652 13.8597C49.7141 13.9783 50.1692 14.212 50.4304 14.5609C50.6916 14.9097 50.7639 15.4036 50.647 16.0425L49.9707 19.742L49.3698 19.6322L49.358 18.7987L49.3183 18.7914C49.1297 18.9622 48.9402 19.1003 48.7499 19.2058C48.5601 19.308 48.3496 19.3738 48.1184 19.4034C47.8911 19.4303 47.6203 19.415 47.3057 19.3575C46.9747 19.2969 46.6906 19.1851 46.4536 19.0221C46.2199 18.8596 46.05 18.6472 45.944 18.3849C45.8413 18.1232 45.823 17.812 45.8889 17.4511C45.9882 16.9082 46.2796 16.5304 46.7633 16.3178C47.2469 16.1051 47.9314 16.0661 48.8169 16.2006L49.7627 16.3324L49.8235 15.9997C49.9095 15.5296 49.8687 15.1818 49.7013 14.9561C49.5338 14.7305 49.2664 14.5841 48.8989 14.5169C48.6142 14.4649 48.3352 14.4566 48.0618 14.4922C47.7885 14.5277 47.5256 14.5806 47.2733 14.6508L47.1344 13.9788C47.4024 13.8978 47.7035 13.8417 48.0376 13.8104C48.3718 13.7791 48.7143 13.7955 49.0652 13.8597ZM49.6465 16.9116L48.8109 16.7948C48.1274 16.6972 47.6287 16.7206 47.3149 16.8651C47.0011 17.0096 46.8116 17.2606 46.7462 17.6181C46.6893 17.9293 46.7416 18.1767 46.9031 18.3601C47.0645 18.5436 47.3009 18.6638 47.612 18.7207C48.0954 18.809 48.5155 18.7473 48.8724 18.5354C49.2293 18.3236 49.4568 17.9495 49.5548 17.4132L49.6465 16.9116Z" fill="url(#paint19_linear_38_2703)"/>
<path d="M55.5614 20.1651C55.4237 20.4905 55.2256 20.7301 54.9669 20.8838C54.7126 21.0357 54.41 21.1032 54.0591 21.0863C53.7112 21.0707 53.3281 20.9744 52.9096 20.7974C52.5532 20.6467 52.2566 20.4883 52.0198 20.3224C51.7831 20.1565 51.5887 19.9811 51.4367 19.7962L51.7375 19.0849C51.9019 19.275 52.1106 19.4729 52.3634 19.6785C52.6163 19.8841 52.8931 20.0505 53.1937 20.1776C53.6339 20.3638 53.9833 20.4275 54.2419 20.3689C54.5006 20.3102 54.6817 20.1584 54.7853 19.9136C54.8443 19.7741 54.8558 19.6346 54.8198 19.4951C54.7882 19.3539 54.7004 19.1943 54.5563 19.0165C54.4136 18.8355 54.2036 18.6151 53.9261 18.3553C53.6531 18.0936 53.4229 17.8519 53.2353 17.6301C53.0522 17.4064 52.9329 17.1788 52.8774 16.947C52.8251 16.7166 52.8586 16.4604 52.9779 16.1783C53.1601 15.7475 53.4733 15.4908 53.9175 15.4082C54.366 15.3239 54.8739 15.4017 55.4412 15.6416C55.748 15.7714 56.0216 15.9237 56.262 16.0984C56.5067 16.2714 56.7237 16.4581 56.9129 16.6588L56.391 17.167C56.2182 16.988 56.0256 16.817 55.8132 16.654C55.6007 16.4911 55.3705 16.3572 55.1226 16.2523C54.7661 16.1015 54.4669 16.0444 54.2249 16.0809C53.986 16.1187 53.8233 16.2399 53.7368 16.4445C53.6699 16.6026 53.6582 16.7511 53.7018 16.8901C53.7484 17.0304 53.8503 17.1868 54.0076 17.3593C54.1648 17.5317 54.3775 17.7459 54.6457 18.0019C54.9151 18.2547 55.1392 18.4938 55.3179 18.7192C55.4979 18.9415 55.6119 19.1688 55.6598 19.401C55.7122 19.6314 55.6794 19.8861 55.5614 20.1651Z" fill="url(#paint20_linear_38_2703)"/>
<path d="M61.5813 18.972C61.9644 19.2463 62.2319 19.5663 62.384 19.9319C62.5361 20.2975 62.5749 20.6855 62.5004 21.0958C62.4279 21.5033 62.2456 21.9109 61.9536 22.3186L61.6508 22.7413L58.5442 20.516C58.1741 21.0499 58.0174 21.5461 58.0739 22.0047C58.1304 22.4633 58.3898 22.8582 58.8522 23.1894C59.1367 23.3932 59.4071 23.5475 59.6632 23.6523C59.9193 23.7571 60.2012 23.8432 60.509 23.9105L60.0799 24.5097C59.7803 24.4482 59.5016 24.3604 59.244 24.2462C58.989 24.134 58.7097 23.9691 58.406 23.7516C57.9738 23.4419 57.6589 23.0839 57.4615 22.6776C57.2688 22.2705 57.206 21.8322 57.2731 21.3628C57.3403 20.8935 57.5512 20.4112 57.9059 19.916C58.2528 19.4317 58.6333 19.0709 59.0476 18.8336C59.4665 18.5955 59.8923 18.4865 60.325 18.5067C60.7604 18.5288 61.1792 18.6839 61.5813 18.972ZM61.1733 19.5242C60.8095 19.2636 60.4342 19.1748 60.0476 19.258C59.6609 19.3413 59.2942 19.5816 58.9475 19.979L61.3277 21.684C61.517 21.4139 61.6432 21.1482 61.7061 20.887C61.7738 20.6249 61.7657 20.379 61.6819 20.1493C61.6 19.9168 61.4305 19.7084 61.1733 19.5242Z" fill="url(#paint21_linear_38_2703)"/>
<path d="M67.1026 23.9088C67.1776 23.9907 67.2511 24.0809 67.323 24.1793C67.3974 24.2754 67.459 24.3651 67.5078 24.4482L66.863 24.8952C66.819 24.8123 66.7644 24.7254 66.6993 24.6344C66.6342 24.5435 66.5687 24.462 66.5028 24.39C66.3527 24.2263 66.1771 24.1019 65.976 24.0169C65.7796 23.9321 65.5693 23.892 65.3452 23.8965C65.1236 23.8987 64.8975 23.9484 64.667 24.0455C64.439 24.1404 64.2195 24.2845 64.0086 24.4777L61.8202 26.4831L61.2506 25.8616L65.3297 22.1236L65.8003 22.6372L65.1099 23.3931L65.1338 23.4192C65.3625 23.3649 65.5934 23.3404 65.8266 23.3458C66.0623 23.3489 66.289 23.3946 66.5066 23.4827C66.7266 23.5733 66.9252 23.7153 67.1026 23.9088Z" fill="url(#paint22_linear_38_2703)"/>
<path d="M67.5239 31.6426C67.2216 31.8257 66.9207 31.9038 66.621 31.8767C66.326 31.8508 66.0412 31.7282 65.7667 31.5089C65.4939 31.2925 65.2399 30.9899 65.0045 30.6013C64.804 30.2703 64.6564 29.9682 64.5617 29.695C64.4671 29.4218 64.4123 29.1658 64.3975 28.9269L65.0581 28.5268C65.0799 28.7772 65.1331 29.0598 65.2175 29.3745C65.3019 29.6893 65.4287 29.9863 65.5978 30.2655C65.8454 30.6743 66.0912 30.9307 66.3352 31.0347C66.5792 31.1387 66.8149 31.1218 67.0423 30.9841C67.1719 30.9056 67.2629 30.7993 67.3154 30.6652C67.3726 30.5322 67.3949 30.3515 67.3824 30.123C67.3728 29.8927 67.3317 29.591 67.2591 29.2179C67.1912 28.8459 67.1462 28.5151 67.1242 28.2255C67.1069 27.937 67.1436 27.6826 67.2345 27.4623C67.327 27.2449 67.5043 27.0568 67.7663 26.8982C68.1664 26.6558 68.5706 26.6313 68.9789 26.8247C69.3918 27.0192 69.7578 27.3798 70.0769 27.9066C70.2495 28.1916 70.382 28.4753 70.4744 28.7577C70.5714 29.0412 70.6377 29.3197 70.6735 29.5932L69.9528 29.6992C69.9177 29.4529 69.8618 29.2015 69.7851 28.945C69.7085 28.6885 69.6004 28.4451 69.4609 28.2148C69.2604 27.8838 69.0514 27.6621 68.8339 27.5499C68.6181 27.4406 68.4153 27.4435 68.2253 27.5585C68.0785 27.6475 67.982 27.761 67.9358 27.8991C67.8914 28.0401 67.8824 28.2266 67.9087 28.4585C67.9351 28.6904 67.982 28.9886 68.0493 29.3531C68.1195 29.7159 68.161 30.0409 68.1737 30.3283C68.1893 30.6139 68.1486 30.8649 68.0513 31.0812C67.9588 31.2986 67.7829 31.4857 67.5239 31.6426Z" fill="url(#paint23_linear_38_2703)"/>
<circle cx="36.5" cy="41.5" r="2.14286" stroke="#EC3E30" stroke-width="0.714286"/>
<path d="M49.3571 47.5C49.3571 46.3165 50.3165 45.3571 51.5 45.3571C52.6835 45.3571 53.6429 46.3165 53.6429 47.5C53.6429 48.6835 52.6835 49.6429 51.5 49.6429C50.3165 49.6429 49.3571 48.6835 49.3571 47.5Z" stroke="#EC3E30" stroke-width="0.714286"/>
<path d="M31 41.4115H34.5686" stroke="#EC3E30"/>
<path d="M57 47.5289L53.5 47.5" stroke="#EC3E30"/>
<path d="M38.6388 41.4115H56.9999" stroke="#EC3E30"/>
<path d="M49.5001 47.5289L31.0001 47.5289" stroke="#EC3E30"/>
<defs>
<filter id="filter0_d_38_2703" x="0.133364" y="0.896323" width="90.0293" height="90.0293" filterUnits="userSpaceOnUse" color-interpolation-filters="sRGB">
<feFlood flood-opacity="0" result="BackgroundImageFix"/>
<feColorMatrix in="SourceAlpha" type="matrix" values="0 0 0 0 0 0 0 0 0 0 0 0 0 0 0 0 0 0 127 0" result="hardAlpha"/>
<feOffset dx="1.52592" dy="2.28888"/>
<feGaussianBlur stdDeviation="4.19628"/>
<feComposite in2="hardAlpha" operator="out"/>
<feColorMatrix type="matrix" values="0 0 0 0 0 0 0 0 0 0 0 0 0 0 0 0 0 0 0.12 0"/>
<feBlend mode="normal" in2="BackgroundImageFix" result="effect1_dropShadow_38_2703"/>
<feBlend mode="normal" in="SourceGraphic" in2="effect1_dropShadow_38_2703" result="shape"/>
</filter>
<linearGradient id="paint0_linear_38_2703" x1="73.2795" y1="44.1853" x2="72.7791" y2="49.1602" gradientUnits="userSpaceOnUse">
<stop stop-color="#EE522C"/>
<stop offset="1" stop-color="#F58D1B"/>
</linearGradient>
<linearGradient id="paint1_linear_38_2703" x1="72.6878" y1="50.3101" x2="70.7926" y2="56.0029" gradientUnits="userSpaceOnUse">
<stop stop-color="#EE522C"/>
<stop offset="1" stop-color="#F58D1B"/>
</linearGradient>
<linearGradient id="paint2_linear_38_2703" x1="70.5282" y1="56.6678" x2="67.9535" y2="60.954" gradientUnits="userSpaceOnUse">
<stop stop-color="#EE522C"/>
<stop offset="1" stop-color="#F58D1B"/>
</linearGradient>
<linearGradient id="paint3_linear_38_2703" x1="67.3946" y1="61.9318" x2="63.2612" y2="66.281" gradientUnits="userSpaceOnUse">
<stop stop-color="#EE522C"/>
<stop offset="1" stop-color="#F58D1B"/>
</linearGradient>
<linearGradient id="paint4_linear_38_2703" x1="62.7256" y1="66.7475" x2="58.6083" y2="69.5843" gradientUnits="userSpaceOnUse">
<stop stop-color="#EE522C"/>
<stop offset="1" stop-color="#F58D1B"/>
</linearGradient>
<linearGradient id="paint5_linear_38_2703" x1="58.2191" y1="69.878" x2="53.6287" y2="71.8601" gradientUnits="userSpaceOnUse">
<stop stop-color="#EE522C"/>
<stop offset="1" stop-color="#F58D1B"/>
</linearGradient>
<linearGradient id="paint6_linear_38_2703" x1="45.2855" y1="73.548" x2="40.2928" y2="73.278" gradientUnits="userSpaceOnUse">
<stop stop-color="#EE522C"/>
<stop offset="1" stop-color="#F58D1B"/>
</linearGradient>
<linearGradient id="paint7_linear_38_2703" x1="39.1838" y1="73.241" x2="33.4109" y2="71.6059" gradientUnits="userSpaceOnUse">
<stop stop-color="#EE522C"/>
<stop offset="1" stop-color="#F58D1B"/>
</linearGradient>
<linearGradient id="paint8_linear_38_2703" x1="32.7513" y1="71.3735" x2="28.3468" y2="69.0071" gradientUnits="userSpaceOnUse">
<stop stop-color="#EE522C"/>
<stop offset="1" stop-color="#F58D1B"/>
</linearGradient>
<linearGradient id="paint9_linear_38_2703" x1="27.3647" y1="68.498" x2="22.8251" y2="64.5747" gradientUnits="userSpaceOnUse">
<stop stop-color="#EE522C"/>
<stop offset="1" stop-color="#F58D1B"/>
</linearGradient>
<linearGradient id="paint10_linear_38_2703" x1="22.3444" y1="64.0654" x2="19.3153" y2="60.0874" gradientUnits="userSpaceOnUse">
<stop stop-color="#EE522C"/>
<stop offset="1" stop-color="#F58D1B"/>
</linearGradient>
<linearGradient id="paint11_linear_38_2703" x1="18.9962" y1="59.708" x2="16.8111" y2="55.2107" gradientUnits="userSpaceOnUse">
<stop stop-color="#EE522C"/>
<stop offset="1" stop-color="#F58D1B"/>
</linearGradient>
<linearGradient id="paint12_linear_38_2703" x1="14.7308" y1="47.0584" x2="14.7694" y2="42.0586" gradientUnits="userSpaceOnUse">
<stop stop-color="#EE522C"/>
<stop offset="1" stop-color="#F58D1B"/>
</linearGradient>
<linearGradient id="paint13_linear_38_2703" x1="14.7434" y1="40.9405" x2="16.0915" y2="35.0939" gradientUnits="userSpaceOnUse">
<stop stop-color="#EE522C"/>
<stop offset="1" stop-color="#F58D1B"/>
</linearGradient>
<linearGradient id="paint14_linear_38_2703" x1="16.2998" y1="34.3606" x2="18.4681" y2="29.8552" gradientUnits="userSpaceOnUse">
<stop stop-color="#EE522C"/>
<stop offset="1" stop-color="#F58D1B"/>
</linearGradient>
<linearGradient id="paint15_linear_38_2703" x1="18.8657" y1="28.9199" x2="22.5698" y2="24.1998" gradientUnits="userSpaceOnUse">
<stop stop-color="#EE522C"/>
<stop offset="1" stop-color="#F58D1B"/>
</linearGradient>
<linearGradient id="paint16_linear_38_2703" x1="23.0409" y1="23.6822" x2="26.871" y2="20.4682" gradientUnits="userSpaceOnUse">
<stop stop-color="#EE522C"/>
<stop offset="1" stop-color="#F58D1B"/>
</linearGradient>
<linearGradient id="paint17_linear_38_2703" x1="27.2256" y1="20.1159" x2="31.6125" y2="17.717" gradientUnits="userSpaceOnUse">
<stop stop-color="#EE522C"/>
<stop offset="1" stop-color="#F58D1B"/>
</linearGradient>
<linearGradient id="paint18_linear_38_2703" x1="39.7313" y1="15.2022" x2="44.7275" y2="15.0093" gradientUnits="userSpaceOnUse">
<stop stop-color="#EE522C"/>
<stop offset="1" stop-color="#F58D1B"/>
</linearGradient>
<linearGradient id="paint19_linear_38_2703" x1="45.8682" y1="14.9257" x2="51.7704" y2="16.0048" gradientUnits="userSpaceOnUse">
<stop stop-color="#EE522C"/>
<stop offset="1" stop-color="#F58D1B"/>
</linearGradient>
<linearGradient id="paint20_linear_38_2703" x1="52.4196" y1="16.1375" x2="57.0246" y2="18.0852" gradientUnits="userSpaceOnUse">
<stop stop-color="#EE522C"/>
<stop offset="1" stop-color="#F58D1B"/>
</linearGradient>
<linearGradient id="paint21_linear_38_2703" x1="58.1799" y1="18.5451" x2="63.0577" y2="22.0391" gradientUnits="userSpaceOnUse">
<stop stop-color="#EE522C"/>
<stop offset="1" stop-color="#F58D1B"/>
</linearGradient>
<linearGradient id="paint22_linear_38_2703" x1="63.6028" y1="22.5078" x2="66.9809" y2="26.1941" gradientUnits="userSpaceOnUse">
<stop stop-color="#EE522C"/>
<stop offset="1" stop-color="#F58D1B"/>
</linearGradient>
<linearGradient id="paint23_linear_38_2703" x1="67.3378" y1="26.538" x2="69.9283" y2="30.8146" gradientUnits="userSpaceOnUse">
<stop stop-color="#EE522C"/>
<stop offset="1" stop-color="#F58D1B"/>
</linearGradient>
</defs>
</svg>
