<svg width="172" height="167" viewBox="0 0 172 167" fill="none" xmlns="http://www.w3.org/2000/svg">
<path d="M127.839 48.5629L60.7067 34.3889C37.7534 29.5427 15.2384 44.3215 10.4182 67.3983L10.4161 67.4081C5.59582 90.4849 20.2955 113.121 43.2488 117.967L110.382 132.141C133.335 136.987 155.85 122.209 160.67 99.1318L160.672 99.122C165.492 76.0452 150.793 53.4091 127.839 48.5629Z" fill="url(#paint0_linear_38_2553)"/>
<path d="M113.571 155.867C107.504 158.07 101.228 158.782 95.1712 158.191C79.3319 156.648 64.9371 146.182 59.1891 130.198L35.9084 65.3277C27.9788 43.2338 39.4647 18.6459 61.4405 10.6737C67.5072 8.47027 73.7732 7.75918 79.83 8.35009C95.6792 9.89246 110.074 20.3586 115.812 36.3432L139.103 101.203C147.032 123.297 135.546 147.895 113.571 155.867Z" fill="url(#paint1_linear_38_2553)"/>
<path d="M88.2643 138.082L139.418 92.1315C156.907 76.4207 158.418 49.43 142.791 31.846L142.784 31.8386C127.158 14.2546 100.311 12.7361 82.8216 28.447L31.6682 74.3972C14.1783 90.108 12.668 117.099 28.2947 134.683L28.3014 134.69C43.9281 152.274 70.7744 153.793 88.2643 138.082Z" fill="url(#paint2_linear_38_2553)"/>
<defs>
<linearGradient id="paint0_linear_38_2553" x1="12.0059" y1="95.0998" x2="159.139" y2="71.659" gradientUnits="userSpaceOnUse">
<stop stop-color="#51516D"/>
<stop offset="0.15" stop-color="#8C84EF"/>
<stop offset="0.45" stop-color="#B096C6"/>
<stop offset="0.85" stop-color="#E9B386"/>
<stop offset="1" stop-color="#FFBF6D"/>
</linearGradient>
<linearGradient id="paint1_linear_38_2553" x1="30.6079" y1="77.7227" x2="144.387" y2="88.6995" gradientUnits="userSpaceOnUse">
<stop stop-color="#F02167"/>
<stop offset="0.2" stop-color="#E01E6A"/>
<stop offset="0.59" stop-color="#B81874"/>
<stop offset="1" stop-color="#861080"/>
</linearGradient>
<linearGradient id="paint2_linear_38_2553" x1="22.5064" y1="72.7255" x2="148.622" y2="93.582" gradientUnits="userSpaceOnUse">
<stop stop-color="#FFBE6B"/>
<stop offset="0.14" stop-color="#FDAE6A"/>
<stop offset="0.42" stop-color="#F98569"/>
<stop offset="0.8" stop-color="#F34567"/>
<stop offset="1" stop-color="#F02167"/>
</linearGradient>
</defs>
</svg>
