<svg width="43" height="43" viewBox="0 0 43 43" fill="none" xmlns="http://www.w3.org/2000/svg">
<circle cx="21.1431" cy="21.1431" r="21.1431" fill="black"/>
<path d="M30.522 18.6304C30.6626 18.5249 30.8735 18.6304 30.8735 18.8062V25.978C30.8735 26.9272 30.1001 27.6655 29.186 27.6655H14.561C13.6118 27.6655 12.8735 26.9272 12.8735 25.978V18.8062C12.8735 18.6304 13.0493 18.5249 13.1899 18.6304C13.9985 19.2632 15.0181 20.0366 18.604 22.6382C19.3423 23.1655 20.6079 24.3257 21.8735 24.3257C23.104 24.3257 24.4048 23.1655 25.1079 22.6382C28.6938 20.0366 29.7134 19.2632 30.522 18.6304ZM21.8735 23.1655C21.0298 23.2007 19.8696 22.146 19.272 21.7241C14.5962 18.3491 14.2446 18.0327 13.1899 17.189C12.979 17.0483 12.8735 16.8022 12.8735 16.521V15.853C12.8735 14.939 13.6118 14.1655 14.561 14.1655H29.186C30.1001 14.1655 30.8735 14.939 30.8735 15.853V16.521C30.8735 16.8022 30.7329 17.0483 30.522 17.189C29.4673 18.0327 29.1157 18.3491 24.4399 21.7241C23.8423 22.146 22.6821 23.2007 21.8735 23.1655Z" fill="white"/>
</svg>
