<svg width="25" height="20" viewBox="0 0 25 20" fill="none" xmlns="http://www.w3.org/2000/svg">
<path d="M23.2031 1.19922C24.1055 1.54297 24.75 2.40234 24.75 3.34766V16.3672C24.75 17.0117 24.4492 17.5703 23.8906 17.957C23.375 18.3008 22.7305 18.4297 22.1289 18.2578C17.1445 16.7109 13.3633 18.9023 12.9336 19.2031C12.7617 19.2891 12.5898 19.375 12.332 19.375C12.0742 19.375 11.9023 19.2891 11.7305 19.2031C11.5156 19.0742 7.64844 16.668 2.53516 18.2578C1.93359 18.4297 1.28906 18.3008 0.773438 17.957C0.257812 17.5703 0 17.0117 0 16.3672V3.34766C0 2.40234 0.601562 1.54297 1.50391 1.19922C3.4375 0.511719 5.32812 0.125 7.04688 0.125C9.58203 0.167969 11.4297 0.898438 12.375 1.32812C13.2773 0.898438 15.082 0.167969 17.6602 0.167969C19.3359 0.167969 21.2266 0.511719 23.2031 1.19922ZM11.6875 17.6133V2.53125C10.9141 2.1875 9.28125 1.54297 7.04688 1.5C5.45703 1.5 3.73828 1.84375 1.93359 2.48828C1.58984 2.61719 1.375 2.96094 1.375 3.34766V16.3672C1.375 16.5391 1.46094 16.7109 1.58984 16.8398C1.76172 16.9688 1.93359 16.9688 2.14844 16.9258C3.56641 16.4961 4.85547 16.3242 6.05859 16.3242C8.59375 16.3242 10.6133 17.0977 11.6875 17.6133ZM23.375 16.3672V3.34766C23.375 2.96094 23.1172 2.61719 22.7734 2.48828C20.9258 1.84375 19.1641 1.5 17.6602 1.5C15.4258 1.54297 13.793 2.1875 13.0625 2.53125V17.6133C14.6523 16.8398 18.2188 15.5938 22.5586 16.9258C22.7734 16.9688 22.9453 16.9688 23.1172 16.8398C23.2461 16.7109 23.375 16.5391 23.375 16.3672Z" fill="#695C82"/>
</svg>
