<svg width="22" height="22" viewBox="0 0 22 22" fill="none" xmlns="http://www.w3.org/2000/svg">
<path d="M19.25 4.875C20.7539 4.875 22 6.12109 22 7.625V18.625C22 20.1719 20.7539 21.375 19.25 21.375H2.75C1.20312 21.375 0 20.1719 0 18.625V7.625C0 6.12109 1.20312 4.875 2.75 4.875H5.5V2.8125C5.5 1.69531 6.40234 0.75 7.5625 0.75H14.4375C15.5547 0.75 16.5 1.69531 16.5 2.8125V4.875H19.25ZM6.875 2.8125V4.875H15.125V2.8125C15.125 2.46875 14.7812 2.125 14.4375 2.125H7.5625C7.17578 2.125 6.875 2.46875 6.875 2.8125ZM20.625 18.625V13.125H14.4375V15.875C14.4375 16.2617 14.0938 16.5625 13.75 16.5625H8.25C7.86328 16.5625 7.5625 16.2617 7.5625 15.875V13.125H1.375V18.625C1.375 19.3984 1.97656 20 2.75 20H19.25C19.9805 20 20.625 19.3984 20.625 18.625ZM8.9375 15.1875H13.0625V13.125H8.9375V15.1875ZM20.625 11.75V7.625C20.625 6.89453 19.9805 6.25 19.25 6.25H2.75C1.97656 6.25 1.375 6.89453 1.375 7.625V11.75H20.625Z" fill="#695C82"/>
</svg>
