<svg width="155" height="36" viewBox="0 0 155 36" fill="none" xmlns="http://www.w3.org/2000/svg">
<path d="M44.9936 17.9872C44.9936 16.3666 45.2771 14.9032 45.8467 13.5996C46.4163 12.2959 47.174 11.2422 48.125 10.441C49.076 9.6397 50.1379 9.0291 51.3131 8.60915C52.4883 8.1892 53.7177 7.98051 55.0038 7.98051C56.4213 7.98051 57.7589 8.22269 59.0166 8.70705C60.2743 9.19141 61.3929 10.0107 62.3722 11.1675C63.3516 12.3243 63.9624 13.731 64.2047 15.3876H59.2847C58.6326 13.5249 57.2048 12.5922 55.0064 12.5922C53.5347 12.5922 52.3492 13.0817 51.4548 14.0608C50.5605 15.0398 50.1121 16.3383 50.1121 17.9588C50.1121 19.4119 50.5631 20.6614 51.4677 21.7049C52.3724 22.7483 53.5502 23.2713 55.0038 23.2713C56.1043 23.2713 57.0347 23.0111 57.8001 22.4881C58.563 21.9677 59.0759 21.1922 59.3388 20.1694H64.2588C64.0165 21.9393 63.4109 23.4259 62.4418 24.6265C61.4728 25.8297 60.3594 26.6799 59.1017 27.1848C57.8439 27.6872 56.478 27.9397 55.0064 27.9397C53.7383 27.9397 52.5141 27.7259 51.3286 27.2982C50.1456 26.8705 49.0786 26.2548 48.1276 25.4535C47.1766 24.6522 46.4163 23.6037 45.8492 22.3077C45.2797 21.0118 44.9962 19.5742 44.9962 17.9897L44.9936 17.9872ZM78.3231 25.3092H70.9984L69.8799 27.7413H64.5397V27.0431L73.5164 7.98051H75.8643L84.756 27.0431V27.7413H79.4725L78.3257 25.3092H78.3231ZM74.6608 16.3099L72.6479 21.035H76.702L74.6608 16.3099ZM85.3694 21.7332H90.2353C90.2353 22.367 90.542 22.8617 91.158 23.2146C91.7739 23.5676 92.5007 23.7454 93.3384 23.7454C94.1219 23.7454 94.8151 23.5779 95.4208 23.243C96.0265 22.908 96.3306 22.4598 96.3306 21.9007C96.3306 21.6018 96.279 21.3365 96.1759 21.1046C96.0729 20.8727 95.9105 20.6846 95.6863 20.5455C95.462 20.4064 95.261 20.293 95.0858 20.2106C94.9079 20.1256 94.6373 20.0611 94.2739 20.0148C93.9105 19.9684 93.6528 19.9349 93.5059 19.9169C93.3564 19.8988 93.0961 19.8808 92.7224 19.8602C91.7714 19.8035 90.8899 19.6644 90.0807 19.4402C89.2688 19.2161 88.5137 18.8915 87.8152 18.4612C87.1168 18.0335 86.5652 17.4513 86.1658 16.7144C85.7637 15.9776 85.5653 15.1171 85.5653 14.1277C85.5653 12.0976 86.3024 10.5208 87.774 9.40525C89.2456 8.2871 91.0446 7.72803 93.1708 7.72803C94.4749 7.72803 95.6914 7.95732 96.8203 8.41334C97.9491 8.86936 98.8795 9.5959 99.6166 10.593C100.354 11.59 100.712 12.77 100.694 14.1277H95.9131C95.895 13.494 95.6321 13.0199 95.1296 12.703C94.627 12.3861 94.0007 12.229 93.2559 12.229C91.4853 12.229 90.5987 12.8267 90.5987 14.017C90.5987 14.6327 90.8358 15.0604 91.3126 15.3026C91.7868 15.5448 92.5471 15.7225 93.5909 15.8333C94.5239 15.908 95.3332 16.0111 96.0239 16.1399C96.712 16.2713 97.413 16.48 98.1218 16.7685C98.8306 17.0571 99.4079 17.4126 99.8563 17.83C100.305 18.25 100.671 18.809 100.962 19.5072C101.251 20.2054 101.395 21.0118 101.395 21.9239C101.395 23.8613 100.604 25.3891 99.0187 26.5072C97.4337 27.6254 95.56 28.1845 93.3976 28.1845C91.2353 28.1845 89.2534 27.6254 87.6786 26.5072C86.1039 25.3891 85.3333 23.7969 85.372 21.7281L85.3694 21.7332ZM116.714 8.17632V12.6206H109.611V15.4159H116.155V19.8885H109.611V23.0755H116.964V27.7439H104.493V8.17632H116.712H116.714ZM133.268 20.7825L137.098 26.9864V27.713H131.673L128.317 21.5915H125.632V27.713H120.516V8.14798H129.127C131.346 8.14798 133.072 8.83845 134.315 10.2168C135.554 11.5952 136.173 13.2183 136.173 15.081C136.134 17.5775 135.165 19.4789 133.266 20.7825H133.268ZM125.552 17.4281H129.103C129.773 17.4281 130.297 17.1859 130.67 16.7016C131.044 16.2172 131.23 15.6401 131.23 14.9676C131.23 14.2952 131.047 13.7336 130.683 13.2775C130.32 12.8215 129.794 12.5922 129.103 12.5922H125.552V17.4281ZM138.974 21.7332H143.84C143.84 22.367 144.147 22.8617 144.763 23.2146C145.379 23.5676 146.106 23.7454 146.943 23.7454C147.727 23.7454 148.42 23.5779 149.026 23.243C149.631 22.908 149.936 22.4598 149.936 21.9007C149.936 21.6018 149.884 21.3365 149.781 21.1046C149.678 20.8727 149.515 20.6846 149.291 20.5455C149.067 20.4064 148.866 20.293 148.691 20.2106C148.513 20.1256 148.242 20.0611 147.879 20.0148C147.516 19.9684 147.258 19.9349 147.111 19.9169C146.961 19.8988 146.701 19.8808 146.327 19.8602C145.376 19.8035 144.495 19.6644 143.686 19.4402C142.874 19.2161 142.119 18.8915 141.42 18.4612C140.722 18.0335 140.17 17.4513 139.771 16.7144C139.369 15.9776 139.17 15.1171 139.17 14.1277C139.17 12.0976 139.907 10.5208 141.379 9.40525C142.851 8.2871 144.65 7.72803 146.776 7.72803C148.08 7.72803 149.296 7.95732 150.425 8.41334C151.554 8.86936 152.485 9.5959 153.222 10.593C153.959 11.59 154.317 12.77 154.299 14.1277H149.518C149.5 13.494 149.237 13.0199 148.735 12.703C148.232 12.3861 147.606 12.229 146.861 12.229C145.09 12.229 144.204 12.8267 144.204 14.017C144.204 14.6327 144.441 15.0604 144.918 15.3026C145.392 15.5448 146.152 15.7225 147.196 15.8333C148.129 15.908 148.938 16.0111 149.629 16.1399C150.317 16.2713 151.018 16.48 151.727 16.7685C152.436 17.0571 153.013 17.4126 153.461 17.83C153.91 18.25 154.276 18.809 154.567 19.5072C154.856 20.2054 155 21.0118 155 21.9239C155 23.8613 154.209 25.3891 152.624 26.5072C151.039 27.6254 149.165 28.1845 147.003 28.1845C144.84 28.1845 142.858 27.6254 141.284 26.5072C139.709 25.3891 138.938 23.7969 138.977 21.7281L138.974 21.7332Z" fill="black"/>
<path d="M27.6371 10.4384L13.124 7.39167C8.1618 6.34997 3.29439 9.52671 2.25231 14.4871L2.25187 14.4892C1.20979 19.4497 4.38766 24.3154 9.34984 25.3571L23.863 28.4038C28.8251 29.4455 33.6926 26.2688 34.7346 21.3084L34.7351 21.3062C35.7772 16.3458 32.5993 11.4801 27.6371 10.4384Z" fill="url(#paint0_linear_38_2595)"/>
<path d="M24.5528 33.5038C23.2412 33.9774 21.8845 34.1303 20.5751 34.0033C17.1508 33.6717 14.0389 31.422 12.7963 27.9861L7.7633 14.0421C6.04903 9.29295 8.53214 4.00772 13.283 2.29406C14.5945 1.82043 15.9491 1.66758 17.2585 1.7946C20.6849 2.12614 23.7969 4.37586 25.0373 7.81179L30.0725 21.7536C31.7867 26.5028 29.3036 31.7901 24.5528 33.5038Z" fill="url(#paint1_linear_38_2595)"/>
<path d="M19.0816 29.6808L30.1402 19.8037C33.9213 16.4266 34.2478 10.6249 30.8695 6.84518L30.8681 6.84357C27.4898 3.06385 21.686 2.73745 17.9049 6.11454L6.84631 15.9917C3.06525 19.3688 2.73874 25.1705 6.11702 28.9502L6.11845 28.9518C9.49673 32.7315 15.3005 33.0579 19.0816 29.6808Z" fill="url(#paint2_linear_38_2595)"/>
<defs>
<linearGradient id="paint0_linear_38_2595" x1="2.59555" y1="20.4417" x2="34.3946" y2="15.3465" gradientUnits="userSpaceOnUse">
<stop stop-color="#51516D"/>
<stop offset="0.15" stop-color="#8C84EF"/>
<stop offset="0.45" stop-color="#B096C6"/>
<stop offset="0.85" stop-color="#E9B386"/>
<stop offset="1" stop-color="#FFBF6D"/>
</linearGradient>
<linearGradient id="paint1_linear_38_2595" x1="6.61741" y1="16.7065" x2="31.2123" y2="19.0928" gradientUnits="userSpaceOnUse">
<stop stop-color="#F02167"/>
<stop offset="0.2" stop-color="#E01E6A"/>
<stop offset="0.59" stop-color="#B81874"/>
<stop offset="1" stop-color="#861080"/>
</linearGradient>
<linearGradient id="paint2_linear_38_2595" x1="4.86567" y1="15.6323" x2="32.1217" y2="20.1657" gradientUnits="userSpaceOnUse">
<stop stop-color="#FFBE6B"/>
<stop offset="0.14" stop-color="#FDAE6A"/>
<stop offset="0.42" stop-color="#F98569"/>
<stop offset="0.8" stop-color="#F34567"/>
<stop offset="1" stop-color="#F02167"/>
</linearGradient>
</defs>
</svg>
