<svg width="28" height="20" viewBox="0 0 28 20" fill="none" xmlns="http://www.w3.org/2000/svg">
<path d="M26.5117 4.63672C27.1133 4.85156 27.5 5.28125 27.5 5.96875C27.5 6.61328 27.1133 7.12891 26.5117 7.34375L14.2227 11.7266C14.0508 11.8125 13.8789 11.8125 13.707 11.8125C13.5781 11.8125 13.4062 11.8125 13.2344 11.7266L3.4375 8.20312V12.5L4.76953 18.5586C4.8125 18.7734 4.76953 18.9883 4.64062 19.1172C4.51172 19.2891 4.29688 19.375 4.08203 19.375H1.375C1.16016 19.375 0.945312 19.2891 0.816406 19.1602C0.6875 18.9883 0.644531 18.7734 0.6875 18.5586L2.0625 12.5859V7.73047L0.945312 7.30078C0.34375 7.08594 0 6.52734 0 5.96875C0 5.36719 0.34375 4.85156 0.945312 4.63672L13.2344 0.210938C13.5352 0.125 13.9219 0.125 14.2227 0.210938L26.5117 4.63672ZM2.23438 18H3.26562L2.75 15.7227L2.23438 18ZM13.707 10.4375L26.125 5.96875L13.75 1.54297L1.375 5.96875L3.39453 6.74219L13.5352 3.60547C13.8789 3.51953 14.2656 3.69141 14.3945 4.07812C14.4805 4.42188 14.3086 4.80859 13.9219 4.9375L5.54297 7.51562L13.707 10.4375ZM20.7109 11.168C21.0977 11.082 21.4414 11.3828 21.4844 11.7266L21.957 15.4648C22.0859 16.4531 21.5273 17.3984 20.5391 17.8711C18.4766 18.8164 16.1562 19.332 13.8359 19.375H13.6641C11.3008 19.332 8.98047 18.8164 6.91797 17.8711C5.92969 17.3984 5.37109 16.4531 5.5 15.4648L5.97266 11.7266C6.01562 11.3828 6.35938 11.082 6.74609 11.168C7.13281 11.2109 7.39062 11.5547 7.34766 11.9414L6.875 15.6367C6.78906 16.0234 7.04688 16.4102 7.47656 16.625C9.36719 17.4844 11.5156 17.957 13.6641 18H13.793C15.9414 17.957 18.0898 17.4844 19.9805 16.625C20.4102 16.4102 20.668 16.0234 20.582 15.6367L20.1094 11.9414C20.0664 11.5547 20.3242 11.2109 20.7109 11.168Z" fill="#695C82"/>
</svg>
