<svg width="24" height="24" viewBox="0 0 24 24" fill="none" xmlns="http://www.w3.org/2000/svg">
<path d="M16.125 6.75C16.125 6.14062 16.5938 5.625 17.25 5.625C17.8594 5.625 18.375 6.14062 18.375 6.75C18.375 7.40625 17.8594 7.875 17.25 7.875C16.5938 7.875 16.125 7.40625 16.125 6.75ZM15.75 16.5C15.2812 16.5 14.8594 16.5 14.4375 16.4062L13.125 17.6719C12.9375 17.9062 12.6562 18 12.375 18H10.5V19.875C10.5 20.5312 9.98438 21 9.375 21H7.5V22.875C7.5 23.5312 6.98438 24 6.375 24H1.125C0.46875 24 0 23.5312 0 22.875V18.375C0 18.0938 0.09375 17.8125 0.328125 17.5781L7.6875 10.2188C7.54688 9.5625 7.5 8.95312 7.5 8.25C7.5 3.70312 11.1562 0 15.75 0C20.2969 0 24 3.70312 24 8.25C24 12.8438 20.2969 16.5 15.75 16.5ZM15.75 15C19.4531 15 22.5 12 22.5 8.25C22.5 4.54688 19.4531 1.5 15.75 1.5C12 1.5 9 4.54688 9 8.25C9 8.8125 9.04688 9.32812 9.14062 9.84375L9.375 10.6875L1.5 18.5625V22.5H6V19.5H9V16.5H12.1875L13.9219 14.8125L14.6719 14.9531C15 15 15.375 15 15.75 15Z" fill="#695C82"/>
</svg>
