<svg width="21" height="24" viewBox="0 0 21 24" fill="none" xmlns="http://www.w3.org/2000/svg">
<path d="M4.5 9V6C4.5 2.71875 7.17188 0 10.5 0C13.7812 0 16.5 2.71875 16.5 6V9H17.25C19.3125 9 21 10.6875 21 12.75V20.25C21 22.3594 19.3125 24 17.25 24H3.75C1.64062 24 0 22.3594 0 20.25V12.75C0 10.6875 1.64062 9 3.75 9H4.5ZM6 9H15V6C15 3.51562 12.9844 1.5 10.5 1.5C7.96875 1.5 6 3.51562 6 6V9ZM1.5 20.25C1.5 21.5156 2.48438 22.5 3.75 22.5H17.25C18.4688 22.5 19.5 21.5156 19.5 20.25V12.75C19.5 11.5312 18.4688 10.5 17.25 10.5H3.75C2.48438 10.5 1.5 11.5312 1.5 12.75V20.25Z" fill="#695C82"/>
</svg>
