<svg width="23" height="23" viewBox="0 0 23 23" fill="none" xmlns="http://www.w3.org/2000/svg">
<path d="M20.207 0.75C21.7539 0.75 22.957 1.99609 22.957 3.5V15.832C22.957 17.293 21.7109 18.5391 20.207 18.5391H14.0195L8.64844 22.5352C8.30469 22.793 7.83203 22.5781 7.83203 22.1484V18.5391H3.70703C2.16016 18.5391 0.957031 17.3359 0.957031 15.832V3.5C0.957031 1.99609 2.16016 0.75 3.70703 0.75H20.207ZM21.625 15.875V3.5C21.625 2.76953 20.9805 2.125 20.25 2.125H3.75C2.97656 2.125 2.375 2.76953 2.375 3.5V15.875C2.375 16.6484 2.97656 17.25 3.75 17.25H8.5625C8.90625 17.25 9.25 17.5938 9.25 17.9375V20.5156L13.2031 17.5508C13.4609 17.3789 13.7188 17.25 14.0195 17.25H20.25C20.9805 17.25 21.625 16.6484 21.625 15.875Z" fill="#695C82"/>
</svg>
