<svg width="15" height="17" viewBox="0 0 15 17" fill="none" xmlns="http://www.w3.org/2000/svg">
<path d="M9.10714 10.0938C12.3549 10.0938 15 12.7169 15 15.9375C15 16.5352 14.4977 17 13.9286 17H1.07143C0.46875 17 0 16.5352 0 15.9375C0 12.7169 2.61161 10.0938 5.89286 10.0938H9.10714ZM1.60714 15.4062H13.3594C13.0916 13.3144 11.2834 11.6875 9.10714 11.6875H5.89286C3.68304 11.6875 1.875 13.3144 1.60714 15.4062ZM7.5 8.5C5.12277 8.5 3.21429 6.60742 3.21429 4.25C3.21429 1.92578 5.12277 0 7.5 0C9.84375 0 11.7857 1.92578 11.7857 4.25C11.7857 6.60742 9.84375 8.5 7.5 8.5ZM7.5 1.59375C5.9933 1.59375 4.82143 2.78906 4.82143 4.25C4.82143 5.74414 5.9933 6.90625 7.5 6.90625C8.97321 6.90625 10.1786 5.74414 10.1786 4.25C10.1786 2.78906 8.97321 1.59375 7.5 1.59375Z" fill="#695C82"/>
</svg>
