<svg width="24" height="24" viewBox="0 0 24 24" fill="none" xmlns="http://www.w3.org/2000/svg">
<path d="M23.25 6.28125C23.6719 6.5625 24 7.03125 24 7.54688C24 8.34375 23.3438 9 22.5 9H1.45312C0.609375 9 0 8.34375 0 7.54688C0 7.03125 0.28125 6.5625 0.703125 6.28125L11.625 0.140625C11.8594 0 12.0938 0 12.3281 0.140625L23.25 6.28125ZM22.3594 7.5L12 1.64062L1.59375 7.5H9.60938C9.42188 7.17188 9.375 6.79688 9.375 6.375C9.375 4.96875 10.5469 3.75 12 3.75C13.4062 3.75 14.625 4.96875 14.625 6.375C14.625 6.79688 14.5312 7.17188 14.3438 7.5H22.3594ZM12 7.5C12.6094 7.5 13.125 7.03125 13.125 6.375C13.125 5.76562 12.6094 5.25 12 5.25C11.3438 5.25 10.875 5.76562 10.875 6.375C10.875 7.03125 11.3438 7.5 12 7.5ZM3 10.5H4.5V16.5H8.25V10.5H9.75V16.5H14.25V10.5H15.75V16.5H19.5V10.5H21V16.5C21.375 16.5 21.75 16.875 21.75 17.25C21.75 17.6719 21.375 18 21 18H3C2.57812 18 2.25 17.6719 2.25 17.25C2.25 16.875 2.57812 16.5 3 16.5V10.5ZM22.125 19.5C22.5 19.5 22.875 19.875 22.875 20.25C22.875 20.6719 22.5 21 22.125 21H1.875C1.45312 21 1.125 20.6719 1.125 20.25C1.125 19.875 1.45312 19.5 1.875 19.5H22.125ZM23.25 22.5C23.625 22.5 24 22.875 24 23.25C24 23.6719 23.625 24 23.25 24H0.75C0.328125 24 0 23.6719 0 23.25C0 22.875 0.328125 22.5 0.75 22.5H23.25Z" fill="#695C82"/>
</svg>
